<?xml version="1.0" encoding="utf-8"?>
<!-- Generator: Adobe Illustrator 25.0.0, SVG Export Plug-In . SVG Version: 6.00 Build 0)  -->
<svg version="1.1" id="Layer_1" xmlns="http://www.w3.org/2000/svg" xmlns:xlink="http://www.w3.org/1999/xlink" x="0px" y="0px"
	 viewBox="0 0 2563 852.9" style="enable-background:new 0 0 2563 852.9;" xml:space="preserve">
<style type="text/css">
	.st0{fill:none;stroke:#E0DEE1;stroke-width:5;stroke-miterlimit:10;}
	.st1{fill:none;}
	.st2{fill:none;stroke:#020262;stroke-width:5;stroke-miterlimit:10;}
	.st3{fill:#FFFFFF;}
	.st4{display:none;}
	.st5{display:inline;}
	.st6{display:inline;fill:none;stroke:#020262;stroke-width:5;stroke-miterlimit:10;}
	.st7{fill:#FFFFFF;stroke:#020262;stroke-width:5;stroke-miterlimit:10;}
	.st8{fill:none;stroke:#020262;stroke-width:5.0002;stroke-miterlimit:10.0003;}
	.st9{fill:#2AF598;stroke:#020262;stroke-width:5;stroke-miterlimit:10;}
	.st10{fill:none;stroke:#020262;stroke-width:4.3081;stroke-miterlimit:10;}
	.st11{fill:#1C7EE1;stroke:#020262;stroke-width:5;stroke-miterlimit:10;}
	.st12{fill:#FFFFFF;stroke:#020262;stroke-width:4.733;stroke-linecap:round;stroke-linejoin:round;stroke-miterlimit:10;}
	.st13{fill:none;stroke:#020262;stroke-width:4.733;stroke-linecap:round;stroke-linejoin:round;stroke-miterlimit:10;}
	.st14{fill:#FFFFFF;stroke:#020262;stroke-width:4.733;stroke-miterlimit:10;}
	.st15{fill:#FFFFFF;stroke:#020262;stroke-width:4.7328;stroke-miterlimit:9.9996;}
	.st16{fill:#64A7DE;stroke:#020262;stroke-width:5;stroke-miterlimit:10;}
</style>
<g id="matrix">
	<g>
		<line class="st0" x1="0" y1="650" x2="52.6" y2="607.5"/>
		<path class="st0" d="M80.9,596.8c-2.1,9.7-6.7,15-15,15s-15-1.1-15-15c0-11.2,6.7-15,15-15C77.3,581.8,82.6,588.7,80.9,596.8z"/>
		<path class="st0" d="M163.1,659.2c0,8.3-3.3,15-15,15c-8.3,0-15,0-15-15c0-8.3,0-18.7,15-15C156.1,646.2,163.1,648.1,163.1,659.2z
			"/>
		<path class="st0" d="M323.9,588.6c-0.8,8.3-6.7,15-15,15s-15-6.7-15-15s6.7-15,15-15C317.2,573.6,324.9,577.7,323.9,588.6z"/>
		<path class="st0" d="M425.8,647.9c0,10.3-6.7,15-15,15s-15-6.7-15-15c0-9.5,3.9-16.3,15-15C419.1,633.8,425.8,639.6,425.8,647.9z"
			/>
		<path class="st0" d="M611.5,530.5c-0.3,11.3-6.7,15-15,15s-15-6.7-15-15s5.2-15,15-15C604.8,515.5,611.7,522.2,611.5,530.5z"/>
		<path class="st0" d="M915.1,461.4c0,8.3-6.7,15-15,15s-17.9-5.2-15-15c2.4-7.9,6.7-15,15-15S915.1,453.1,915.1,461.4z"/>
		<path class="st0" d="M1075.8,572.3c0,9.4-6.7,15-15,15s-15-2-15-15c0-8.3,3.2-16.3,15-15C1069.1,558.2,1075.8,564,1075.8,572.3z"
			/>
		<path class="st0" d="M1281.1,446.4c0,8.3-6.7,15-15,15s-15-6.7-15-15s6.7-14.7,15-15C1276.5,430.9,1281.1,438.1,1281.1,446.4z"/>
		<path class="st0" d="M1442.3,374.7c0,10.8-5,15-15,15c-8.3,0-14.3-6.8-15-15c-0.8-9.5,7.6-15,15-15
			C1435.6,359.7,1442.3,366.4,1442.3,374.7z"/>
		<path class="st0" d="M1616.5,431.4c0,8.3-6.7,15.5-15,15.5s-15-7.3-15-15.5c0-8.3,6.7-14.4,15-14.4S1616.5,423.1,1616.5,431.4z"/>
		<path class="st0" d="M1866.6,476.4c0,8.3-6.7,15-15,15s-15-2.9-15-11.2s4-18,12.3-18S1866.6,468.1,1866.6,476.4z"/>
		<path class="st0" d="M2018.6,557.3c-1.3,8.2-6.7,15-15,15s-15-6.7-15-15s6.7-15,15-15S2020.2,546.8,2018.6,557.3z"/>
		<path class="st0" d="M2158.8,468c0,8.3-6.7,15-15,15s-15-5.6-15-13.9s6.7-15,15-15S2158.8,459.8,2158.8,468z"/>
		<path class="st0" d="M2346.5,404.7c0,8.3-6.8,14.2-15,15c-10.9,1-15-4.2-15-15c0-7.7,1.5-15,15-15
			C2339.8,389.7,2346.5,396.4,2346.5,404.7z"/>
		<path class="st0" d="M2486.2,491.4c0,10.3-6.7,15-15,15s-15-6.7-15-15s8.4-15,16.6-15S2486.2,483.1,2486.2,491.4z"/>
		<line class="st0" x1="2486.2" y1="491.4" x2="2562.3" y2="431.4"/>
		<polyline class="st0" points="2458.8,483 2434.9,446.4 2398.5,468 2343.2,414.1 		"/>
		<polyline class="st0" points="2317.8,413.3 2177.8,498.1 2156.3,476.4 		"/>
		<line class="st0" x1="2131.4" y1="476.4" x2="2018.8" y2="555.8"/>
		<polyline class="st0" points="1988.6,557.3 1964.9,526.4 1938.6,551.3 1861.7,487.4 		"/>
		<polyline class="st0" points="1441.7,379.5 1544.5,468 1588.9,439.6 		"/>
		<polyline class="st0" points="1612.6,441.4 1612.6,441.5 1698.6,522.4 1741.2,498.1 1769,522.4 1836.6,483 		"/>
		<polyline class="st0" points="1413.3,380.1 1364.9,419.7 1330.1,399.9 1281.1,444.4 		"/>
		<line class="st0" x1="1253.8" y1="455" x2="1075.8" y2="572.3"/>
		<polyline class="st0" points="1045.8,572.3 979.4,487.4 956.1,511 913.5,468 		"/>
		<polyline class="st0" points="422,637.8 446,620.1 467.6,644.2 503.4,596.8 538.8,611.8 587.8,542.7 		"/>
		<polyline class="st0" points="611.2,527.6 760.3,498.1 819.9,522.7 885.1,468 		"/>
		<line class="st0" x1="395.8" y1="647.9" x2="321.5" y2="596.8"/>
		<polyline class="st0" points="295.6,595.7 223,644.2 199.8,620.5 161.1,651.8 		"/>
		<line class="st0" x1="133.1" y1="659.2" x2="76.2" y2="607.7"/>
	</g>
</g>
<g id="Layer_2_1_">
	<line class="st1" x1="1700.9" y1="690.7" x2="1696.3" y2="693.2"/>
	<line class="st1" x1="1700.9" y1="720.7" x2="1696.7" y2="719.2"/>
	<line class="st1" x1="1694.1" y1="742" x2="1690.3" y2="741.3"/>
	<line class="st1" x1="1667.9" y1="737.1" x2="1664.1" y2="736.4"/>
	<line class="st1" x1="1677.6" y1="775.3" x2="1672.7" y2="766.7"/>
	<line class="st1" x1="1668.4" y1="787.1" x2="1657.2" y2="778.8"/>
	<line class="st1" x1="1620.8" y1="790.5" x2="1617.9" y2="801.7"/>
	<line class="st1" x1="1595.6" y1="796.8" x2="1595.1" y2="788.5"/>
	<line class="st1" x1="1567.8" y1="776.5" x2="1562.3" y2="780.7"/>
	<g>
		<path class="st2" d="M2563,739.9c0,38.7-31.4,70.1-70.1,70.1H70.1C31.4,810,0,778.6,0,739.9c0-39.8,32.3-72,72-72h2420.9
			c38.7,0,70.1,31.4,70.1,70.1V739.9z"/>
		<path class="st2" d="M70.1,795C39.7,795,15,770.3,15,739.9c0-31.4,25.6-57,57-57h2420.9c30.4,0,55.1,24.7,55.1,55.1v1.9
			c0,30.4-24.7,55.1-55.1,55.1H70.1z"/>
	</g>
	<line class="st2" x1="249.1" y1="810" x2="249.1" y2="854"/>
	<line class="st2" x1="272.1" y1="810" x2="269.7" y2="854"/>
	<line class="st2" x1="480" y1="810" x2="480" y2="854"/>
	<line class="st2" x1="457" y1="810" x2="459.4" y2="854"/>
	<line class="st2" x1="657.5" y1="810.5" x2="657.5" y2="854.6"/>
	<line class="st2" x1="636.8" y1="810" x2="636.9" y2="854"/>
	<line class="st2" x1="1898.4" y1="810" x2="1898.4" y2="854"/>
	<line class="st2" x1="1921.5" y1="810" x2="1919" y2="854"/>
	<line class="st2" x1="2129.4" y1="810" x2="2129.4" y2="854"/>
	<line class="st2" x1="2106.3" y1="810" x2="2108.8" y2="854"/>
	<line class="st2" x1="2306.9" y1="810.5" x2="2306.9" y2="854.6"/>
	<line class="st2" x1="2286.1" y1="810" x2="2286.3" y2="854"/>
</g>
<g id="carts">
	<g id="cart-3">
		<g>
			<circle class="st2" cx="2270.1" cy="511.1" r="6.3"/>
			<path class="st2" d="M2274.4,515.7c7.8,8.5,15.4,17.2,22.5,26.4c5.2,6.8,10.2,13.8,14.8,21.1c4.9,7.8,9.4,16,13.3,24.7
				c3,6.7,5.7,13.6,8,20.9"/>
			<path class="st2" d="M2423.5,639.3h-82.7c-8.6,0-15.5-6.9-15.5-15.5V622c0-5.7,3.1-10.6,7.6-13.3c2.3-1.4,5-2.2,7.9-2.2h5.6h17.8
				h17.6h15.6h15.6l4.8-18.7l6.4-24.7l5.4-21.1H2409h-27.3h-29.3h-30.8h-24.8"/>
			<polyline class="st2" points="2409.2,542.1 2405.3,563.2 2400.9,587.9 2397.5,606.6 			"/>
			<polyline class="st2" points="2381.9,542.1 2381.9,563.2 2381.9,587.9 2381.9,606.6 			"/>
			<polyline class="st2" points="2352.6,542.1 2356.4,563.2 2360.9,587.9 2364.3,606.6 			"/>
			<polyline class="st2" points="2321.7,542.1 2329.8,563.2 2339.3,587.9 2346.4,606.6 			"/>
			<polyline class="st2" points="2311.7,563.2 2329.8,563.2 2356.4,563.2 2381.9,563.2 2405.3,563.2 2424.3,563.2 			"/>
			<polyline class="st2" points="2325,587.9 2339.3,587.9 2360.9,587.9 2381.9,587.9 2400.9,587.9 2418,587.9 			"/>
			<circle class="st2" cx="2344.6" cy="654.3" r="13.5"/>
			<path class="st2" d="M2344.6,659.8c-3,0-5.5-2.5-5.5-5.5s2.5-5.5,5.5-5.5s5.5,2.5,5.5,5.5
				C2350.1,657.4,2347.7,659.8,2344.6,659.8z"/>
			<circle class="st2" cx="2406.7" cy="654.3" r="13.5"/>
			<path class="st2" d="M2406.7,659.8c-3,0-5.5-2.5-5.5-5.5s2.5-5.5,5.5-5.5s5.5,2.5,5.5,5.5
				C2412.2,657.4,2409.7,659.8,2406.7,659.8z"/>
		</g>
	</g>
	<g id="cart-2">
		<g>
			<circle class="st2" cx="2051" cy="511.1" r="6.3"/>
			<path class="st2" d="M2055.3,515.7c7.8,8.5,15.4,17.2,22.5,26.4c5.2,6.8,10.2,13.8,14.8,21.1c4.9,7.8,9.4,16,13.3,24.7
				c3,6.7,5.7,13.6,8,20.9"/>
			<path class="st2" d="M2204.4,639.3h-82.7c-8.6,0-15.5-6.9-15.5-15.5V622c0-5.7,3-10.6,7.6-13.3c2.3-1.4,5-2.2,7.9-2.2h5.6h17.8
				h17.6h15.6h15.6l4.8-18.7l6.4-24.7l5.4-21.1h-20.6h-27.3h-29.3h-30.9h-24.8"/>
			<polyline class="st2" points="2190.1,542.1 2186.2,563.2 2181.8,587.9 2178.4,606.6 			"/>
			<polyline class="st2" points="2162.8,542.1 2162.8,563.2 2162.8,587.9 2162.8,606.6 			"/>
			<polyline class="st2" points="2133.5,542.1 2137.3,563.2 2141.8,587.9 2145.2,606.6 			"/>
			<polyline class="st2" points="2102.6,542.1 2110.7,563.2 2120.2,587.9 2127.3,606.6 			"/>
			<polyline class="st2" points="2092.6,563.2 2110.7,563.2 2137.3,563.2 2162.8,563.2 2186.2,563.2 2205.2,563.2 			"/>
			<polyline class="st2" points="2105.9,587.9 2120.2,587.9 2141.8,587.9 2162.8,587.9 2181.8,587.9 2198.9,587.9 			"/>
			<circle class="st2" cx="2125.5" cy="654.3" r="13.5"/>
			<path class="st2" d="M2125.5,659.8c-3,0-5.5-2.5-5.5-5.5s2.5-5.5,5.5-5.5s5.5,2.5,5.5,5.5C2131,657.4,2128.6,659.8,2125.5,659.8z
				"/>
			<circle class="st2" cx="2187.6" cy="654.3" r="13.5"/>
			<path class="st2" d="M2187.6,659.8c-3,0-5.5-2.5-5.5-5.5s2.5-5.5,5.5-5.5s5.5,2.5,5.5,5.5
				C2193.1,657.4,2190.6,659.8,2187.6,659.8z"/>
		</g>
	</g>
	<g id="cart-1">
		<g>
			<circle class="st2" cx="1823.4" cy="511.1" r="6.3"/>
			<path class="st2" d="M1827.7,515.7c7.8,8.5,15.4,17.2,22.5,26.4c5.2,6.8,10.2,13.8,14.8,21.1c4.9,7.8,9.4,16,13.3,24.7
				c3,6.7,5.7,13.6,8,20.9"/>
			<path class="st2" d="M1976.8,639.3h-82.7c-8.6,0-15.5-6.9-15.5-15.5V622c0-5.7,3.1-10.6,7.6-13.3c2.3-1.4,5-2.2,7.9-2.2h5.6h17.8
				h17.6h15.6h15.6l4.8-18.7l6.4-24.7l5.4-21.1h-20.6H1935h-29.3H1875h-24.8"/>
			<polyline class="st2" points="1962.4,542.1 1958.6,563.2 1954.2,587.9 1950.8,606.6 			"/>
			<polyline class="st2" points="1935.2,542.1 1935.2,563.2 1935.2,587.9 1935.2,606.6 			"/>
			<polyline class="st2" points="1905.9,542.1 1909.7,563.2 1914.2,587.9 1917.5,606.6 			"/>
			<polyline class="st2" points="1875,542.1 1883.1,563.2 1892.6,587.9 1899.7,606.6 			"/>
			<polyline class="st2" points="1865,563.2 1883.1,563.2 1909.7,563.2 1935.2,563.2 1958.6,563.2 1977.6,563.2 			"/>
			<polyline class="st2" points="1878.3,587.9 1892.6,587.9 1914.2,587.9 1935.2,587.9 1954.2,587.9 1971.3,587.9 			"/>
			<circle class="st2" cx="1897.9" cy="654.3" r="13.5"/>
			<path class="st2" d="M1897.9,659.8c-3,0-5.5-2.5-5.5-5.5s2.5-5.5,5.5-5.5s5.5,2.5,5.5,5.5
				C1903.4,657.4,1900.9,659.8,1897.9,659.8z"/>
			<circle class="st2" cx="1960" cy="654.3" r="13.5"/>
			<path class="st2" d="M1960,659.8c-3,0-5.5-2.5-5.5-5.5s2.5-5.5,5.5-5.5s5.5,2.5,5.5,5.5C1965.5,657.4,1963,659.8,1960,659.8z"/>
		</g>
	</g>
	<g id="cart-4">
		<g>
			<circle class="st2" cx="1596.1" cy="511.1" r="6.3"/>
			<path class="st2" d="M1600.4,515.7c7.8,8.5,15.4,17.2,22.5,26.4c5.2,6.8,10.2,13.8,14.8,21.1c4.9,7.8,9.4,16,13.3,24.7
				c3,6.7,5.7,13.6,8,20.9"/>
			<path class="st2" d="M1749.5,639.3h-82.7c-8.6,0-15.5-6.9-15.5-15.5V622c0-5.7,3.1-10.6,7.6-13.3c2.3-1.4,5-2.2,7.9-2.2h5.6h17.8
				h17.6h15.6h15.6l4.8-18.7l6.4-24.7l5.4-21.1H1735h-27.3h-29.3h-30.7h-24.8"/>
			<polyline class="st2" points="1735.1,542.1 1731.3,563.2 1726.9,587.9 1723.5,606.6 			"/>
			<polyline class="st2" points="1707.9,542.1 1707.9,563.2 1707.9,587.9 1707.9,606.6 			"/>
			<polyline class="st2" points="1678.6,542.1 1682.4,563.2 1686.9,587.9 1690.2,606.6 			"/>
			<polyline class="st2" points="1647.7,542.1 1655.8,563.2 1665.3,587.9 1672.4,606.6 			"/>
			<polyline class="st2" points="1637.7,563.2 1655.8,563.2 1682.4,563.2 1707.9,563.2 1731.3,563.2 1750.3,563.2 			"/>
			<polyline class="st2" points="1651,587.9 1665.3,587.9 1686.9,587.9 1707.9,587.9 1726.9,587.9 1744,587.9 			"/>
			<circle class="st2" cx="1670.6" cy="654.3" r="13.5"/>
			<path class="st2" d="M1670.6,659.8c-3,0-5.5-2.5-5.5-5.5s2.5-5.5,5.5-5.5s5.5,2.5,5.5,5.5
				C1676.1,657.4,1673.6,659.8,1670.6,659.8z"/>
			<circle class="st2" cx="1732.7" cy="654.3" r="13.5"/>
			<path class="st2" d="M1732.7,659.8c-3,0-5.5-2.5-5.5-5.5s2.5-5.5,5.5-5.5s5.5,2.5,5.5,5.5
				C1738.2,657.4,1735.7,659.8,1732.7,659.8z"/>
		</g>
	</g>
</g>
<g id="users">
	<g id="user-5">
		<g id="user-2_2_">
			<path class="st3" d="M555.5,585.1c-0.5-0.3-0.9-0.7-1.4-1"/>
			<path class="st3" d="M514.1,586.4c-0.2,0.1-0.4,0.2-0.6,0.2"/>
			<path class="st3" d="M565.7,593.7c-0.1,0.2-0.2,0.3-0.3,0.5"/>
			<path class="st3" d="M500.1,595.6c-0.2-0.3-0.3-0.5-0.5-0.8"/>
			<path class="st3" d="M565.4,594.2c15.4,17.5,20.4,43.2,19.6,73.6H480c1.3-31.6,6.4-57.9,20.1-72.3c3.8-3.9,8.1-7,13.3-8.9
				c-13.8-5.6-25.7-16.9-31.3-32.6c-0.2-0.6-0.4-1.2-0.6-1.8l-2.8-57.5c35.2-20.2,72.4-18.4,111.5,2.5l-8.1,47.1l-0.5,2.6
				c-4.3,19.4-14.2,31.8-26.2,38.3C559.2,587.8,562.5,590.9,565.4,594.2z"/>
		</g>
		<path class="st2" d="M514.1,586.4c-24.4,8.9-32.3,40.8-34.1,81.5h105c0.9-36.9-6.7-67-31-83.7"/>
		<path class="st2" d="M499.6,594.7c16.5,27.8,54.5,22.5,66.1-1"/>
		<path class="st2" d="M478.7,494.6l2.8,57.5c14.8,47.3,86.5,56.9,100.1-5.3l8.5-49.7C551.1,476.2,513.9,474.4,478.7,494.6z"/>
		<path class="st2" d="M482.2,554c9.1-7.2,16.6-17.4,20.2-35.4c18.9,10.1,40,11,63.3,2.3c3.1,9,8.8,16.7,16.5,23.3"/>
	</g>
	<g id="user-4">
		<path class="st3" d="M246.7,667.8H142.5c-2.5-27.4,3.8-50.6,20.9-69c2.5-2.7,5.2-5.2,8.2-7.7c-16.2-8.2-27.2-25-27.2-44.3
			c0-27.4,22.2-49.7,49.7-49.7c27.4,0,49.7,22.2,49.7,49.7c0,18.5-10.1,34.7-25.2,43.2c2.2,2,4.2,4.2,6.1,6.5
			C239.4,613.8,246.7,637.6,246.7,667.8z"/>
		<path class="st2" d="M171.6,591.2c-3,2.5-5.7,5-8.2,7.7c-17.1,18.3-23.5,41.6-20.9,69h104.1c0-30.3-7.3-54-21.9-71.3
			c-1.9-2.3-4-4.4-6.1-6.5"/>
		<polyline class="st2" points="163.5,598.9 194.3,621.6 224.7,596.5 		"/>
		<line class="st2" x1="194.3" y1="667.8" x2="194.3" y2="621.6"/>
		<circle class="st2" cx="194.1" cy="546.8" r="49.7"/>
		<path class="st2" d="M145.1,555.3c11.9-4.8,22.7-11.8,28.9-27.4c18.4,4,39.1-0.5,60.9-9.3"/>
	</g>
	<g id="user-3">
		<g>
			<g>
				<path class="st3" d="M751.7,668.3H650c-1.6-38.2,5.4-69.4,32.3-81.1c-16.3-7.3-28.1-22.9-30-41.4c-0.2-1.7-0.3-3.4-0.3-5.2
					c0-28.2,22.8-51,51-51c25,0,43.9,18,47.9,41.7c0.5,3,0.8,6.1,0.8,9.3c0,18.6-11.2,37.6-28.4,46.2
					C747.4,599.3,754.4,628.9,751.7,668.3z"/>
				<path class="st3" d="M687.7,513.7"/>
				<path class="st3" d="M683.1,586.9c-0.3,0.1-0.6,0.2-0.9,0.4"/>
			</g>
			<path class="st2" d="M751.7,538.9c0,25.2-20.5,51-48.7,51s-51-22.8-51-51s22.8-51,51-51S751.7,510.7,751.7,538.9z"/>
			<path class="st2" d="M687.7,511.9"/>
			<path class="st2" d="M652.3,544.1c16-3.2,28.8-12.1,35.4-32.1c9.6,15.6,33.9,18.8,63.2,17.6"/>
			<path class="st2" d="M682.6,585.6c-27.5,11.4-34.1,42.3-32.6,80.9h101.7c2.8-39.4-4.3-69-28.4-81.5"/>
			<polyline class="st2" points="691.6,588.6 691.6,607.8 680,666.6 			"/>
			<polyline class="st2" points="710.4,589.3 710.4,607.8 722,666.6 			"/>
			<line class="st2" x1="691.6" y1="607.8" x2="710.4" y2="607.8"/>
		</g>
	</g>
	<g id="user-2_3_" class="st4">
		<g id="user-2_4_" class="st5">
			<path class="st3" d="M57.2,585.1c-0.5-0.3-0.9-0.7-1.4-1"/>
			<path class="st3" d="M15.8,586.4c-0.2,0.1-0.4,0.2-0.6,0.2"/>
			<path class="st3" d="M67.4,593.7c-0.1,0.2-0.2,0.3-0.3,0.5"/>
			<path class="st3" d="M1.8,595.6c-0.2-0.3-0.3-0.5-0.5-0.8"/>
			<path class="st3" d="M67.1,594.2c15.4,17.5,20.4,43.2,19.6,73.6h-105c1.3-31.6,6.4-57.9,20.1-72.3c3.8-3.9,8.1-7,13.3-8.9
				C1.3,581-10.6,569.7-16.1,554c-0.2-0.6-0.4-1.2-0.6-1.8l-1.6-32.6c-0.8-17.1,10.6-32.5,27.3-36.5c17.1-4.1,34.7-3.4,52.7,1.6
				c17.6,5,28.6,22.4,25.5,40.4l-3.3,19.1l-0.5,2.6c-4.3,19.4-14.2,31.8-26.2,38.3C60.9,587.8,64.2,590.9,67.1,594.2z"/>
		</g>
		<path class="st6" d="M15.8,586.4c-24.4,8.9-32.3,40.8-34.1,81.5h105c0.9-36.9-6.7-67-31-83.7"/>
		<path class="st6" d="M1.3,594.7c16.5,27.8,54.5,22.5,66.1-1"/>
		<path class="st6" d="M9,483.1c-16.7,4-28.2,19.3-27.3,36.5l1.6,32.6c14.8,47.3,86.5,56.9,100.1-5.3l3.7-21.7
			c3.1-18-7.9-35.4-25.5-40.4C43.7,479.6,26.1,479,9,483.1z"/>
		<path class="st6" d="M-16.1,554c9.1-7.2,16.6-17.4,20.2-35.4c18.9,10.1,40,11,63.3,2.3c3.1,9,8.8,16.7,16.4,23.3"/>
	</g>
	<g id="user-1_2_">
		<path class="st3" d="M341.9,613.5v-7.4c-20.3-5-38-26.1-38-50.2c0-20.1,12.3-36.8,28.3-44.3c-2.5-4.2-5.3-8.1-8.4-11.8
			c-6.1-7-13.4-12.8-22.8-16.9l37.2-16c4.2,6.1,7.1,14.2,9.1,23.4c1.2,5.3,2.1,11,2.8,16.9c0.3,0,0.6,0,0.9,0
			c23.8,0,45.2,24.2,43.6,52.2c-1.4,23.4-14.6,41.5-33.1,46.5v7.7c7.6,0.6,13.8,2.9,18.8,6.5c5.1,3.8,9.1,8.9,12.2,15
			c4.7,9.3,7.6,20.7,10,32.8H301c2.5-11.4,6.1-21.2,10.8-29.3c3.7-6.5,8.1-11.8,13.2-16.1C329.9,618.4,335.6,615.4,341.9,613.5z"/>
		<path class="st2" d="M402.5,667.8c-2.4-12.1-5.3-23.5-10-32.8c-3.1-6.1-7.1-11.3-12.2-15c-5-3.7-11.1-6-18.8-6.5v-7.7"/>
		<path class="st2" d="M341.9,606.1v7.4c-6.4,1.9-12,4.9-17,9c-5.1,4.2-9.5,9.6-13.2,16.1c-4.7,8.1-8.2,17.9-10.8,29.3"/>
		<line class="st2" x1="319.3" y1="667.8" x2="311.7" y2="638.6"/>
		<line class="st2" x1="392.4" y1="635.1" x2="381" y2="667.8"/>
		<polyline class="st2" points="325,622.5 332.2,642 371.7,642 380.2,620.1 		"/>
		<path class="st2" d="M394.5,559.4c-1.6,27.6-19.7,47.8-43.6,47.8s-47.1-23.7-47.1-51.4s23.3-48.7,47.1-48.7
			S396.2,531.4,394.5,559.4z"/>
		<path class="st2" d="M304.8,565.1c11.6-4.5,22.1-11.3,29.1-24.9c11.3,15.2,34.4,20.1,60.4,22.4"/>
		<path class="st2" d="M332.1,511.6c-2.5-4.2-5.3-8.1-8.4-11.8c-6-7-13.4-12.8-22.8-16.9l37.2-16c4.2,6.1,7.1,14.2,9.1,23.4
			c1.2,5.3,2.1,11,2.9,16.9"/>
		<path class="st2" d="M323.7,499.8c7.3-4.1,15.1-7.3,23.6-9.5"/>
		<line class="st2" x1="301" y1="667.8" x2="402.5" y2="667.8"/>
	</g>
</g>
<g id="machine">
	<path class="st2" d="M886.2,612.3"/>
	<path class="st3" d="M815.4,795c1-36.8,1.6-74.3,1.6-112.1c0-5,0-10-0.1-15c-0.3-48.9-1.8-98.2-5-147l-12,0.5l-3.6-31.5l48.8-1.4
		c0,10.4-0.1,20.8-0.1,31c-0.1,52.1,0.1,101.9,0.9,148.4c0.1,5,0.2,10,0.3,15c0.8,40.2,2,77.8,3.8,112.1c0.2,5.1,0.5,10.1,0.8,15
		c0.9,15.4,1.9,30.1,3,44h-40.5c0.6-14.5,1.1-29.2,1.6-44C815.1,805,815.2,800,815.4,795z"/>
	<polyline class="st2" points="845.2,488.5 796.3,489.9 799.9,521.3 811.9,520.8 845,519.5 	"/>
	<path class="st2" d="M811.9,520.8c7.2,112.1,5.7,227.1,1.4,333.2"/>
	<path class="st7" d="M853.8,854c-9.5-118-10-291.3-7.6-483c0.1-5.7,4.7-10.3,10.5-10.3H1732c4.7,0,8.5,3.7,8.7,8.3
		c6.6,159.4,7,321.3,2,485.1"/>
	<path class="st2" d="M1135,510.2"/>
	<path class="st2" d="M1134.6,478.6h-3.1h-23.3c-3.2,0-5.8-2.6-5.8-5.8v-40.6c0-3.2,2.6-5.8,5.8-5.8h26.5h263.1h25.6
		c3.2,0,5.8,2.6,5.8,5.8v41.9c0,2.8-2,5.2-4.7,5.7c-5.9,1.1-14.4,1.7-24.6,2L1134.6,478.6z"/>
	<path class="st2" d="M868.9,260.8c70.5-3.1,133.5-1.5,198.1-5v33.7c0,9.7-7.9,17.6-17.6,17.6h-163c-9.7,0-17.6-7.9-17.6-17.6
		L868.9,260.8L868.9,260.8z"/>
	<line class="st2" x1="903.4" y1="307.1" x2="903.4" y2="361"/>
	<line class="st2" x1="1039" y1="307.1" x2="1039" y2="361"/>
	<path class="st2" d="M923,361v-28.2c0-2.7,2.2-4.9,4.9-4.9h17.6c2.7,0,4.9,2.2,4.9,4.9V361"/>
	<path class="st2" d="M991.5,361v-30.3c0-1.6,1.3-2.8,2.8-2.8h17.7c1.4,0,2.6,1,2.8,2.4l4.8,30.7"/>
	<path class="st2" d="M1099.9,361c2.7-15.4,13.8-24.1,36.7-23.5l268.8-3.9l154.7-4.8c7.8-0.2,15.3,2.7,20.9,8.1s8.7,12.9,8.7,20.7
		v3.4"/>
	<path class="st7" d="M1746.1,612.1c45.5-15.5,43.1-49.9,43.1-49.9s-2.7-80.5-2.7-143.4c-6-30.1-32.1-37-45.3-38.5l1.4,39.8
		c5.8,4.4,12.2,11.3,12.5,21c0.4,17.7,0,107.9,0,107.9s-2.2,10.5-9.3,18.6L1746.1,612.1z"/>
	<path class="st2" d="M1625.8,475.6c-1.9,12-9.5,18.9-18.4,17.6c-8.8-1.2-15.8-9.2-15.8-18.1s8.4-16.8,17.2-17.1
		C1618.7,457.8,1627.4,465.3,1625.8,475.6z"/>
	<path class="st2" d="M1665.8,475.7c0,31.4-24.3,53.2-54.8,56.9c-31.2,3.8-56.9-25.5-56.9-56.9s25.5-56.9,56.9-56.9
		C1642.4,418.8,1665.8,444.3,1665.8,475.7z"/>
	<path class="st2" d="M1582.1,472.3c2.3-8,7.7-14.8,15-18.8s15.9-4.9,23.9-2.5c0,0,0,0,0.1,0c7.6,2.3,13.6,8.3,16,15.9l65.5,211.1
		c12.6,40.5-3.8,84.3-39.9,106.7c-57.3,35.5-148.2,10-140.4-94.4c0.4-4.8,1.2-9.8,2.5-14.5L1582.1,472.3z"/>
	<polygon class="st2" points="1086.2,673.6 1083.5,805.8 1131.5,803.1 1131.5,673.6 	"/>
	<line class="st2" x1="1131.5" y1="728.3" x2="1085.1" y2="728"/>
	<line class="st2" x1="1131.5" y1="744.8" x2="1084.7" y2="746.6"/>
	<line class="st2" x1="1131.5" y1="765.2" x2="1084.3" y2="769"/>
	<line class="st2" x1="1131.5" y1="790.1" x2="1083.9" y2="786"/>
	<path class="st2" d="M1483.7,734.8c1.7-0.2,44.8,81,44.8,81l-81-2.4L1483.7,734.8z"/>
	<line class="st2" x1="1484.4" y1="762.9" x2="1484.4" y2="786"/>
	<circle class="st2" cx="1485.1" cy="796.7" r="1.6"/>
	<circle class="st2" cx="1706" cy="796.5" r="15.9"/>
	<line class="st2" x1="1700.5" y1="790.7" x2="1710.9" y2="801.7"/>
	<line class="st2" x1="1700.4" y1="800.8" x2="1711.4" y2="789.9"/>
	<path class="st2" d="M1512.4,489.7c0.1,5.5-4.9,9.6-9.6,9.6c-5.3,0-10.3-4.4-9.6-9.6c0.6-5.3,4-9.3,9.3-9.3
		C1507.8,480.4,1512.3,484.6,1512.4,489.7z"/>
	<path class="st2" d="M1723.7,489.7c0.1,5.5-4.9,9.6-9.6,9.6c-5.3,0-10.3-4.4-9.6-9.6c0.6-5.3,4-9.3,9.3-9.3
		C1719.1,480.4,1723.6,484.6,1723.7,489.7z"/>
	<path class="st2" d="M1512.4,452.5c0.1-5.5-4.9-9.6-9.6-9.6c-5.3,0-10.3,4.4-9.6,9.6c0.6,5.3,4,9.3,9.3,9.3
		C1507.8,461.8,1512.3,457.6,1512.4,452.5z"/>
	<path class="st2" d="M1723.7,452.5c0.1-5.5-4.9-9.6-9.6-9.6c-5.3,0-10.3,4.4-9.6,9.6c0.6,5.3,4,9.3,9.3,9.3
		C1719.1,461.8,1723.6,457.6,1723.7,452.5z"/>
	<line class="st2" x1="1704.4" y1="452.5" x2="1661.2" y2="452.5"/>
	<line class="st2" x1="1559" y1="452.5" x2="1512.4" y2="452.5"/>
	<line class="st2" x1="1555.8" y1="489.7" x2="1512.4" y2="489.7"/>
	<line class="st2" x1="1704.5" y1="489.7" x2="1664.1" y2="489.7"/>
	<path class="st2" d="M1303.1,599.2c-14.3-27-42.8-45.4-75.4-45.4c-27.5,0-51.9,13-67.5,33.2c-5.8,7.5-10.4,16.1-13.5,25.4
		c-2.8,8.4-4.3,17.4-4.3,26.8h-41c0-69.8,56.6-126.4,126.3-126.4c53.8,0,99.8,33.6,118,81C1333.5,593.4,1319.1,595.4,1303.1,599.2z"
		/>
	<line class="st2" x1="1146.6" y1="612.4" x2="1125.6" y2="606.8"/>
	<line class="st2" x1="1160.1" y1="587" x2="1142.6" y2="574.5"/>
	<line class="st2" x1="1185.9" y1="564.7" x2="1175.8" y2="551.2"/>
	<line class="st2" x1="1212.2" y1="555.2" x2="1211.6" y2="541.5"/>
	<line class="st2" x1="1245.2" y1="541.2" x2="1242.7" y2="555.1"/>
	<line class="st2" x1="1274.2" y1="552" x2="1267.4" y2="563.6"/>
	<line class="st2" x1="1298.6" y1="570.3" x2="1288.3" y2="579.1"/>
	<path class="st2" d="M906.5,426.5c-0.7,0-1.4,0.3-1.9,0.8s-0.7,1.2-0.7,1.9l2.8,49.7c0.1,1.9,1.7,3.3,3.5,3.3l127.7-1.7
		c1.5,0,3-0.7,4-1.8c1-1.1,1.6-2.6,1.6-4.1l-1.5-42.2c-0.1-3-2.6-5.4-5.6-5.4L906.5,426.5z"/>
</g>
<g id="hands">
	<path class="st2" d="M1387.2,674.2c-3.7-28.2-12.9-59.1-26.9-78.3c-0.9-0.2-1.7-0.5-2.6-0.6c-3.7-0.8-7.7-1.3-12-1.4
		c-12.2-0.5-26.6,1.6-42.6,5.4c-16.4,3.9-34.4,9.7-53.4,16.4c-3.1,1.1-5.6,3.7-6.5,6.8s-0.4,6.6,1.6,9.3c16,21.5,36.8,24.3,60.9,14
		c2.5,0.1,4.8,0.4,7,0.8c12.6,2.5,21.4,10.4,26.8,21.2c2.3,4.5,3.9,9.6,5,15c0.2,1,0.4,2.1,0.6,3.1c5.8,36.4-13.5,85.4-48.3,92.6
		c-28.5,2.4-46.6-3.9-60.2-13.4c-25.3-17.7-34.8-46.6-65.4-51.7c-2.9-0.5-5.8,0.5-7.8,2.7s-2.7,5.2-1.9,8c2.5,8.7,4.9,17.6,7.2,26.6
		c3.4,13.4,6.7,27.2,9.7,41.4c0.2,0.9,0.4,1.8,0.7,2.7c1.7,5.6,4.5,10.7,8.4,15c4.5,5,10.2,8.8,16.8,11
		c21.6,7.1,38.2,18.6,51.4,33.1l-1.8,87.2"/>
	<path class="st2" d="M1357.6,595.3c5.1-40.7,12.5-77,29.9-93.8c2.4-2.3,5.9-3.1,9.1-2s5.4,3.9,5.8,7.3c1.6,13.6,2.4,27,2.8,40
		c1.2,45.9-3.3,87.9,3.5,121"/>
	<path class="st2" d="M1433.1,667.8c-1.4-17.5-1.9-36.7-0.9-58.4c1.2-28.5,4.8-61.2,11.7-99.9c0.5-2.9-0.9-5.9-3.6-7.2
		c-2.7-1.3-5.9-0.7-8,1.5c-11.1,12-19.9,26.6-27,43.1"/>
	<path class="st2" d="M1432.1,609.4c12.2-19.1,24.7-36.2,38-48.8c1.8-1.7,4.5-2.2,6.8-1.2s3.8,3.3,3.8,5.8v7.4
		c0,2.2-0.4,4.2-1.2,6.3c-11.1,28.3-19.3,57.9-24.5,88.9c-0.8,5-1.6,10-2.3,15c-0.2,1.3-0.3,2.6-0.5,3.9c-0.4,3.5-1.5,6.8-3.1,10
		c-16.6,32.2-30.3,64.9-41.3,98.3c-1.7,5-3.3,10-4.8,15c-4.5,14.6-37.8,126.9-41.3,141.7"/>
</g>
<g id="belt-gears">
	<g>
		<circle class="st2" cx="1938.4" cy="737" r="36.3"/>
		<path class="st2" d="M1938.4,750.3c-7.3,0-13.3-6-13.3-13.3s6-13.3,13.3-13.3c8.8,0,13.3,4.5,13.3,13.3
			C1951.6,744.4,1945.7,750.3,1938.4,750.3z"/>
		<line class="st2" x1="1925.1" y1="737" x2="1907.7" y2="737"/>
	</g>
	<g>
		<circle class="st2" cx="1796.9" cy="737" r="36.3"/>
		<path class="st2" d="M1796.9,750.3c-7.3,0-13.3-6-13.3-13.3s6-13.3,13.3-13.3c8.8,0,13.3,4.5,13.3,13.3
			C1810.2,744.4,1804.2,750.3,1796.9,750.3z"/>
		<line class="st2" x1="1810.1" y1="735.5" x2="1828.8" y2="735.5"/>
	</g>
	<g>
		<path class="st2" d="M2116,737c1.9,20-16.2,36.3-36.3,36.3c-20,0-36.3-16.2-36.3-36.3s16.3-37.9,36.3-36.3
			C2101.7,702.5,2114.1,717.5,2116,737z"/>
		<path class="st2" d="M2079.7,750.3c-7.3,0-13.3-6-13.3-13.3s6-13.3,13.3-13.3c8.8,0,13.3,4.5,13.3,13.3
			C2093,744.4,2087,750.3,2079.7,750.3z"/>
		<line class="st2" x1="2093" y1="737" x2="2108.7" y2="737"/>
	</g>
	<g>
		<path class="st2" d="M2521.6,717.6c12.3,15.8,5.7,39.3-11.2,50.1s-39.2,5.7-50.1-11.2c-9.2-14.4-5.2-38.6,11.2-50.1
			C2489.2,694,2509.5,702.2,2521.6,717.6z"/>
		<path class="st2" d="M2498.1,748.3c-6.2,3.9-13.2,1.1-17.1-5c-3.9-6.2-3.3-13.5,2.8-17.4c7.4-4.7,13.6-3.4,18.3,4.1
			C2506.1,736.1,2504.3,744.4,2498.1,748.3z"/>
		<line class="st2" x1="2478.5" y1="736.9" x2="2462" y2="736.9"/>
	</g>
	<g>
		<path class="st2" d="M2384.5,754.3c-7.8,18.4-31.6,24.1-49.2,14.6c-17.6-9.6-24-31.6-14.6-49.2c8.1-15,31.2-23.3,49.2-14.6
			C2389.4,714.6,2392.1,736.3,2384.5,754.3z"/>
		<path class="st2" d="M2346.2,748.7c-6.4-3.5-7.4-11-3.9-17.4s10.1-9.5,16.6-6c7.7,4.2,9.5,10.3,5.3,18
			C2360.8,749.8,2352.7,752.2,2346.2,748.7z"/>
		<line class="st2" x1="2340.3" y1="737.5" x2="2321.7" y2="737.5"/>
	</g>
	<g>
		<path class="st2" d="M2248.3,754.3c-7.8,18.4-31.6,24.1-49.2,14.6s-24.1-31.6-14.6-49.2s31.3-23.4,49.2-14.6
			C2257.2,716.7,2256,736.3,2248.3,754.3z"/>
		<path class="st2" d="M2210.1,748.7c-6.4-3.5-8.8-11.6-5.3-18s11.6-8.8,18-5.3c7.7,4.2,9.5,10.3,5.3,18
			C2224.6,749.8,2216.6,752.2,2210.1,748.7z"/>
		<line class="st2" x1="2216.7" y1="750.3" x2="2216.7" y2="766.8"/>
	</g>
	<g>
		<circle class="st2" cx="210.4" cy="737" r="36.3"/>
		<path class="st2" d="M210.4,750.3c-7.3,0-13.3-6-13.3-13.3s6-13.3,13.3-13.3c8.8,0,13.3,4.5,13.3,13.3
			C223.7,744.4,217.7,750.3,210.4,750.3z"/>
		<line class="st2" x1="174.1" y1="738.9" x2="190" y2="738.9"/>
	</g>
	<g>
		<path class="st2" d="M388,737c1.9,20-16.2,36.3-36.3,36.3c-20,0-36.3-16.2-36.3-36.3s16.3-37.9,36.3-36.3
			C373.7,702.5,386.2,717.5,388,737z"/>
		<path class="st2" d="M351.7,750.3c-7.3,0-13.3-6-13.3-13.3s6-13.3,13.3-13.3c8.8,0,13.3,4.5,13.3,13.3
			C365,744.4,359.1,750.3,351.7,750.3z"/>
		<line class="st2" x1="351.7" y1="773.3" x2="351.7" y2="759.6"/>
	</g>
	<g>
		<path class="st2" d="M520.4,754.3c-7.8,18.4-31.6,24.1-49.2,14.6s-24.1-31.6-14.6-49.2c9.6-17.6,31.3-23.4,49.2-14.6
			C529.2,716.7,528,736.3,520.4,754.3z"/>
		<path class="st2" d="M482.1,748.7c-6.4-3.5-8.8-11.6-5.3-18s11.6-8.8,18-5.3c7.7,4.2,9.5,10.3,5.3,18
			C496.7,749.8,488.6,752.2,482.1,748.7z"/>
		<line class="st2" x1="488.8" y1="723.1" x2="488.8" y2="708"/>
	</g>
	<g>
		<path class="st2" d="M656.5,754.3c-7.8,18.4-31.6,24.1-49.2,14.6c-17.6-9.6-24-31.6-14.6-49.2c8.1-15,31.2-23.3,49.2-14.6
			C661.4,714.6,664.1,736.3,656.5,754.3z"/>
		<path class="st2" d="M618.2,748.7c-6.4-3.5-7.4-11-3.9-17.4s10.1-9.5,16.6-6c7.7,4.2,9.5,10.3,5.3,18
			C632.8,749.8,624.7,752.2,618.2,748.7z"/>
		<line class="st2" x1="609.1" y1="705.2" x2="615" y2="719.8"/>
	</g>
	<g>
		<path class="st2" d="M793.6,717.6c12.3,15.8,5.7,39.3-11.2,50.1s-39.2,5.7-50.1-11.2c-9.2-14.4-5.2-38.6,11.2-50.1
			C761.2,694,781.6,702.2,793.6,717.6z"/>
		<path class="st2" d="M770.1,748.3c-6.2,3.9-13.2,1.1-17.1-5c-3.9-6.2-3.3-13.5,2.8-17.4c7.4-4.7,13.6-3.4,18.3,4.1
			C778.1,736.1,776.3,744.4,770.1,748.3z"/>
		<line class="st2" x1="751.9" y1="741.2" x2="737.3" y2="750.1"/>
	</g>
	<g>
		
			<ellipse transform="matrix(0.9939 -0.1104 0.1104 0.9939 -80.9679 12.1165)" class="st8" cx="68.9" cy="737" rx="36.3" ry="36.3"/>
		<path class="st2" d="M68.9,750.3c-7.3,0-13.3-6-13.3-13.3s6-13.3,13.3-13.3c8.8,0,13.3,4.5,13.3,13.3
			C82.2,744.4,76.2,750.3,68.9,750.3z"/>
		<line class="st2" x1="105.2" y1="737" x2="87.9" y2="737"/>
	</g>
</g>
<g id="mega-phone">
	<g>
		<path class="st2" d="M385.2,371.8c23,0,47.4,0,81.9,0c31.8-10.9,29.4-58.5-9.1-66.5h-68.1c-22.3-14.3-39.8-54-62.6-54H314
			l4.4,168.1C342.1,416.2,364.9,405,385.2,371.8z"/>
		<line class="st2" x1="330.3" y1="417" x2="328.1" y2="251.2"/>
		<line class="st2" x1="388.6" y1="371.8" x2="388.6" y2="304.4"/>
		<path class="st2" d="M422.8,371.8c0.7,27.4-3.3,51.2-15.7,68.3c-2.1,3-1.5,7.2,1.4,9.4c3.7,2.8,8.7,5.1,15.1,6.7
			c2.3,0.6,4.8-0.2,6.4-2c12.4-14,19.5-44.8,24.5-82.4"/>
		<line class="st2" x1="485.7" y1="326" x2="457.7" y2="326"/>
		<line class="st2" x1="489" y1="343.4" x2="454.6" y2="343.4"/>
		<line class="st2" x1="482.7" y1="360.6" x2="457.7" y2="358"/>
		<path id="speaker-sounds-box" class="st9" d="M317,364.2c-29.5-10.3-18.2-40.2-1.4-51.5L317,364.2z"/>
		<g id="speaker-sounds">
			<line class="st2" x1="277.5" y1="355.3" x2="264" y2="364.2"/>
			<line class="st2" x1="276.2" y1="336.1" x2="260.5" y2="337.3"/>
			<line class="st2" x1="269.1" y1="304.4" x2="284.2" y2="312.7"/>
			<line class="st2" x1="289.2" y1="286.6" x2="297" y2="299.9"/>
			<line class="st2" x1="291.8" y1="375.4" x2="280.3" y2="388.6"/>
		</g>
	</g>
</g>
<g id="machine-gear">
	<g>
		<path class="st2" d="M1667.9,737.1c-1.8,3.3-4,6.5-6.4,9.4l11.3,20.2c-4.7,4.6-9.9,8.7-15.6,12.1l-19.7-14.6l0,0
			c-3.4,1.4-7,2.5-10.7,3.3l-6,23c-2.2,0.2-4.3,0.2-6.5,0.2c-6.6,0-13-0.8-19.1-2.2l-1.4-23.3c-2.6-0.9-5.1-2-7.5-3.2l0,0
			l-18.5,14.5c-6.9-4.7-13.1-10.4-18.3-16.8l0,0l13.7-18.4c-2.6-3.9-4.8-8.2-6.4-12.7l-23.2-0.8c-1.7-6.5-2.5-13.3-2.5-20.3
			c0-2.7,0.1-5.4,0.4-8.1l23.1-5.5c0.7-3.2,1.7-6.2,2.8-9.1l-16.7-16.2c4.8-9,11.2-17,18.8-23.7l18.3,13.4c3.1-2.3,6.5-4.4,10-6
			l0.4-23.8c8.2-2.7,16.9-4.1,25.9-4.1h0.1l6.1,22.3c4.8,0.5,9.5,1.5,13.9,3.1l14.9-17.6c6.3,2.9,12.2,6.6,17.5,11l-8.5,21.9
			c3.4,3.5,6.3,7.3,8.8,11.5l21.7-6.2c3.6,7.1,6.2,14.8,7.6,22.9l-20.9,10.9c0.1,1.1,0.1,2.2,0.1,3.4s0,2.5-0.1,3.7l21.3,8
			c-1.1,7.8-3.3,15.2-6.4,22.2L1667.9,737.1z"/>
		<path class="st2" d="M1649.7,703.9c0,21.1-18.4,38.8-39.5,38.8s-35.8-17.1-35.1-38.1c0.7-23.5,15.4-38.8,36.5-38.8
			S1649.7,682.8,1649.7,703.9z"/>
		<circle class="st2" cx="1611.2" cy="705.9" r="14"/>
	</g>
</g>
<g id="machine-speedo">
	<path class="st10" d="M1266.3,685.7c-2,18.7-16.7,34.1-32.4,34.1s-30.3-15.3-30.3-34.1s14.6-34.1,30.3-34.1
		S1268.9,661.5,1266.3,685.7z"/>
	<path class="st10" d="M1235,699.6c-6.2,0-14.5-4.3-14.5-14s7.2-17.1,13.3-17.1c5.3,0,10.4,1.9,13.1,4.9c0.8,0.9,3.2,3.5,2.5,10.4
		C1248.3,694.5,1241.3,699.6,1235,699.6z"/>
	<path class="st10" d="M1209.7,665.5l-6.9-59.3c-0.2-2,1-3.8,2.8-4.4c1.9-0.6,3.9,0.2,4.9,1.9l27.8,48.2"/>
</g>
<g id="machine-speedo-2">
	<g>
		<path class="st2" d="M1038,739.7c0,15.4-7.2,31.3-19.8,43.7c-12.6,12.3-28.7,19.4-44.2,19.4c-54.8,0-59-49.6-59-64.8
			c0-32.6,29.2-62.3,61.2-62.3C1007.9,675.7,1038,706.8,1038,739.7z"/>
		<line class="st2" x1="939.9" y1="705.2" x2="930.6" y2="697.8"/>
		<line class="st2" x1="973.7" y1="694" x2="973.4" y2="675.8"/>
		<line class="st2" x1="1020.1" y1="696.7" x2="1010.3" y2="707"/>
		<line class="st2" x1="1038" y1="739.7" x2="1022.5" y2="739.7"/>
		<line class="st2" x1="1016.2" y1="785.2" x2="1005.4" y2="773.8"/>
		<line class="st2" x1="975" y1="788" x2="973.9" y2="802.8"/>
		<line class="st2" x1="943.2" y1="772.8" x2="931.6" y2="786.7"/>
		<line class="st2" x1="931.4" y1="739.2" x2="914.9" y2="736.9"/>
		<path class="st2" d="M976.1,666.7c-37.4,0-70.2,33.9-70.2,71.3c0,37.4,19.3,73.8,68,73.8c37.4,0,73-34.6,73-72.1
			C1047,702.3,1013.5,666.7,976.1,666.7z"/>
	</g>
</g>
<g id="machine-speedo-1-arrow">
	<path class="st11" d="M999,729.7l-13,9.1c0,0.2,0,0.4,0,0.7c0,6.3-5.1,11.4-11.4,11.4c-6.3,0-11.4-5.1-11.4-11.4
		c0-6.3,5.1-11.4,11.4-11.4c2.2,0,4.2,0.6,5.9,1.6l9.5-9.3c0.5-0.5,1.2-0.7,1.8-0.6c4.4,0.7,7.5,2.8,8,8
		C1000,728.5,999.7,729.3,999,729.7z"/>
</g>
<g id="machine-speedo-2_1_">
	<g>
		<path class="st2" d="M1038,579.4c0,15.4-7.2,31.3-19.8,43.7c-12.6,12.3-28.7,19.4-44.2,19.4c-54.8,0-59-49.6-59-64.8
			c0-32.6,29.2-62.3,61.2-62.3C1007.9,515.4,1038,546.5,1038,579.4z"/>
		<line class="st2" x1="939.9" y1="544.9" x2="930.6" y2="537.5"/>
		<line class="st2" x1="973.7" y1="533.7" x2="973.4" y2="515.5"/>
		<line class="st2" x1="1020.1" y1="536.4" x2="1010.3" y2="546.7"/>
		<line class="st2" x1="1038" y1="579.4" x2="1022.5" y2="579.4"/>
		<line class="st2" x1="1016.2" y1="624.9" x2="1005.4" y2="613.5"/>
		<line class="st2" x1="975" y1="627.7" x2="973.9" y2="642.5"/>
		<line class="st2" x1="943.2" y1="612.5" x2="931.6" y2="626.4"/>
		<line class="st2" x1="931.4" y1="579" x2="914.9" y2="576.6"/>
		<path class="st2" d="M976.1,506.4c-37.4,0-70.2,33.9-70.2,71.3s19.3,73.8,68,73.8c37.4,0,73-34.6,73-72.1
			C1047,542,1013.5,506.4,976.1,506.4z"/>
	</g>
</g>
<g id="machine-speedo-2-arrow">
	<path class="st9" d="M967.8,557.1l9.1,13c0.2,0,0.4,0,0.7,0c6.3,0,11.4,5.1,11.4,11.4c0,6.3-5.1,11.4-11.4,11.4
		c-6.3,0-11.4-5.1-11.4-11.4c0-2.2,0.6-4.2,1.6-5.9l-9.3-9.5c-0.5-0.5-0.7-1.2-0.6-1.8c0.7-4.4,2.8-7.5,8-8
		C966.6,556.1,967.4,556.4,967.8,557.1z"/>
</g>
<g id="revenue">
	<g>
		<circle class="st12" cx="1925.1" cy="473.6" r="23.1"/>
		<path class="st13" d="M1930.4,463.6c-15.1-1.6-11,7.7-5.3,10.1c10.7,4.5-3.4,16.3-8,6"/>
		<line class="st13" x1="1925.1" y1="456.4" x2="1925.1" y2="463.4"/>
		<line class="st13" x1="1924.4" y1="483.5" x2="1924.4" y2="488.9"/>
	</g>
	<g>
		
			<ellipse transform="matrix(0.1602 -0.9871 0.9871 0.1602 1096.3972 2522.8914)" class="st12" cx="2030.8" cy="617.1" rx="23.1" ry="23.1"/>
		<path class="st13" d="M2036.1,607.1c-15.1-1.6-11,7.7-5.3,10.1c10.7,4.5-3.4,16.3-8,6"/>
		<line class="st13" x1="2030.8" y1="599.9" x2="2030.8" y2="606.9"/>
		<line class="st13" x1="2030.1" y1="626.9" x2="2030.1" y2="632.3"/>
	</g>
	<g>
		
			<ellipse transform="matrix(0.8859 -0.464 0.464 0.8859 130.4589 1018.4719)" class="st12" cx="2135.1" cy="244.1" rx="23.1" ry="23.1"/>
		<path class="st13" d="M2144,251c4.2-14.6-5.7-12.2-9-6.9c-6.3,9.8-15.5-6.1-4.5-8.9"/>
		<line class="st13" x1="2152.1" y1="247" x2="2145.2" y2="245.8"/>
		<line class="st13" x1="2125.6" y1="241.6" x2="2120.3" y2="240.7"/>
	</g>
	<g>
		
			<ellipse transform="matrix(0.8859 -0.464 0.464 0.8859 -161.0599 954.435)" class="st12" cx="1859.2" cy="804.5" rx="23.1" ry="23.1"/>
		<path class="st13" d="M1868.1,811.5c4.2-14.6-5.7-12.2-9-6.9c-6.3,9.8-15.5-6.1-4.5-8.9"/>
		<line class="st13" x1="1876.1" y1="807.5" x2="1869.2" y2="806.3"/>
		<line class="st13" x1="1849.7" y1="802.1" x2="1844.4" y2="801.2"/>
	</g>
	<g>
		
			<ellipse transform="matrix(1.389875e-02 -0.9999 0.9999 1.389875e-02 1412.6619 2218.1033)" class="st14" cx="1830.9" cy="392.8" rx="23.1" ry="23.1"/>
		<path class="st13" d="M1838.1,384c-14.5-4.5-12.3,5.4-7.1,8.8c9.6,6.5-6.6,15.3-9,4.3"/>
		<line class="st13" x1="1834.4" y1="375.9" x2="1833" y2="382.8"/>
		<line class="st13" x1="1828.3" y1="402.3" x2="1827.2" y2="407.7"/>
	</g>
	<g>
		<ellipse class="st15" cx="1774.7" cy="626.4" rx="23.1" ry="23.1"/>
		<path class="st13" d="M1784.8,631.6c1.6-15.1-7.7-11-10-5.2c-4.5,10.7-16.3-3.5-6-8"/>
		<line class="st13" x1="1792" y1="626.4" x2="1784.9" y2="626.3"/>
		<line class="st13" x1="1764.9" y1="625.5" x2="1759.4" y2="625.5"/>
	</g>
	<g>
		
			<ellipse transform="matrix(0.7849 -0.6196 0.6196 0.7849 189.2971 1469.1044)" class="st12" cx="2210.7" cy="461.9" rx="23.1" ry="23.1"/>
		<path class="st13" d="M2222,460.3c-7.5-13.1-12.7-4.4-11.2,1.7c2.6,11.3-15.2,6.8-9.5-3"/>
		<line class="st13" x1="2224.7" y1="451.7" x2="2219" y2="455.9"/>
		<line class="st13" x1="2202.4" y1="467.1" x2="2198" y2="470.3"/>
	</g>
	<g>
		
			<ellipse transform="matrix(0.7158 -0.6983 0.6983 0.7158 380.7808 1815.8182)" class="st14" cx="2421.2" cy="440.1" rx="23.1" ry="23.1"/>
		<path class="st13" d="M2420,428.7c-13.4,7-4.9,12.5,1.2,11.3c11.4-2.1,6.2,15.5-3.4,9.4"/>
		<line class="st13" x1="2411.7" y1="425.7" x2="2415.6" y2="431.5"/>
		<line class="st13" x1="2426.1" y1="448.6" x2="2429.1" y2="453.1"/>
	</g>
	<g>
		
			<ellipse transform="matrix(0.7158 -0.6983 0.6983 0.7158 293.847 1568.6564)" class="st14" cx="2074.1" cy="423.3" rx="23.1" ry="23.1"/>
		<path class="st13" d="M2072.9,411.9c-13.4,7-4.9,12.5,1.2,11.3c11.4-2.1,6.2,15.5-3.4,9.4"/>
		<line class="st13" x1="2064.6" y1="408.9" x2="2068.5" y2="414.7"/>
		<line class="st13" x1="2079" y1="431.8" x2="2082" y2="436.3"/>
	</g>
	<g>
		
			<ellipse transform="matrix(0.4533 -0.8914 0.8914 0.4533 842.1194 2539.9993)" class="st14" cx="2491.7" cy="583.5" rx="23.1" ry="23.1"/>
		<path class="st13" d="M2502.9,586.2c-2.1-15-10.1-8.8-11-2.7c-1.9,11.4-16.7,0.6-7.7-6.4"/>
		<line class="st13" x1="2508.5" y1="579.4" x2="2501.7" y2="581.1"/>
		<line class="st13" x1="2482.1" y1="585.2" x2="2476.8" y2="586.5"/>
	</g>
	<g>
		
			<ellipse transform="matrix(0.2622 -0.965 0.965 0.2622 1056.4215 2907.5125)" class="st14" cx="2429.6" cy="762.9" rx="23.1" ry="23.1"/>
		<path class="st13" d="M2433.1,773.9c11.7-9.5,2.3-13.2-3.4-10.8c-10.8,4.3-9.2-14,1.5-9.9"/>
		<line class="st13" x1="2441.8" y1="775.1" x2="2436.8" y2="770.2"/>
		<line class="st13" x1="2423.1" y1="755.6" x2="2419.3" y2="751.8"/>
	</g>
	<g>
		
			<ellipse transform="matrix(0.3148 -0.9492 0.9492 0.3148 975.3621 2564.3237)" class="st14" cx="2263.8" cy="606.6" rx="23.1" ry="23.1"/>
		<path class="st13" d="M2273.5,600.4c-12.3-8.8-13.4,1.2-9.6,6.1c7,9.2-11.1,12.5-9.9,1.2"/>
		<line class="st13" x1="2272.4" y1="591.6" x2="2269" y2="597.7"/>
		<line class="st13" x1="2258.4" y1="614.8" x2="2255.7" y2="619.5"/>
	</g>
</g>
<g id="machine-light">
	<path class="st16" d="M934.5,442.5c6,0,11,4,11,10s-4.9,11-11,11c-6,0-11-4.9-11-11S928.5,442.5,934.5,442.5z"/>
	<path class="st11" d="M984.6,453.4c0,5.5-4.9,10-11,10c-6,0-11-4.5-11-10s4.9-12.3,11-12.3C979.7,441.1,984.6,447.9,984.6,453.4z"
		/>
	<path class="st9" d="M1025.4,454.3c0,6-3.5,11-9.6,11c-6,0-11-4.9-11-11c0-6,3.5-11,9.6-11C1020.5,443.4,1025.4,448.3,1025.4,454.3
		z"/>
</g>
<g id="human-traffic">
	<g id="ht-4">
		<path class="st2" d="M208.4,308.6c0,15.7-12.3,33.6-28,33.6S152,329.4,152,313.7c0-15.7,12.7-28.4,28.4-28.4
			S208.4,292.9,208.4,308.6z"/>
		<path class="st2" d="M194.1,337.4c10.8,13.6,15.6,27.2,14.3,40.8l-56.4,1.9c-0.2-15.4,4.4-29.4,13-42.5"/>
		<path class="st2" d="M152,313c17.3-3.5,36-6.1,56.2-7.7"/>
	</g>
	<g id="ht-3">
		<path class="st2" d="M224.9,159.1c2.6,15.5-5.8,34.3-21.4,36.1s-29.7-9.4-31.5-25s9-26.6,24.6-28.4S223,147.6,224.9,159.1z"/>
		<path class="st2" d="M216.6,188.9c12.3,12.3,18.6,25.2,18.9,38.8l-55.8,8.4c-2-15.2,1-29.8,8.1-43.7"/>
		<line class="st2" x1="225.3" y1="162.9" x2="172.6" y2="160.9"/>
	</g>
	<g id="ht-2">
		<path class="st2" d="M386.2,121.8c0,15.1-11.4,27.3-25.4,27.3s-27.8-9.5-27.8-24.6s12.6-26.1,26.6-26.1S386.2,106.7,386.2,121.8z"
			/>
		<line class="st2" x1="385.7" y1="116.8" x2="332.9" y2="124"/>
		<path class="st2" d="M373.9,145.2c8.8,15.4,15.4,30.1,14.7,42.2l-58.3,1.5c0.6-14.4,6.9-28.7,16.9-42.8"/>
	</g>
	<g id="ht-1">
		<path class="st2" d="M521.7,180.6c0,16.2-12.2,29.4-27.2,29.4s-24.3-11.6-24.3-27.9s9.3-23.8,24.3-23.8S521.7,164.4,521.7,180.6z"
			/>
		<line class="st2" x1="521.7" y1="179" x2="470.4" y2="178.6"/>
		<path class="st2" d="M511.1,203.9c10.2,12.3,16.3,26.1,18.7,41.1l-55.9,6.2c-0.7-14,2.7-28.8,8.9-44.1"/>
	</g>
</g>
<g id="rocket">
	<path class="st2" d="M1859.2,74.7l-18.1,21c-45.4-1.7-81.5,33.9-105.4,93.5L1769,214c3.1,1.8,91.1-56.8,72.1-118.4"/>
	<line class="st2" x1="1780.9" y1="207.4" x2="1740.7" y2="178.8"/>
	<line class="st2" x1="1786.2" y1="159.2" x2="1763.2" y2="193"/>
	<path class="st2" d="M1806.9,150.4c-7.6,1.4-14.7-2.3-16.1-9.9c-1.4-7.6,3.7-14.1,11.3-15.6c7.6-1.4,14.5,1.5,16,9.1
		C1819.5,141.6,1814.5,148.9,1806.9,150.4z"/>
	<line class="st2" x1="1843.5" y1="119.6" x2="1813.8" y2="99.4"/>
	<path class="st2" d="M1759.7,143.4c-12.9,6.1-29.9,11.1-37.4,9.9l4.2,14.9c5.8,1.1,11.2,2.8,16.4,4.6"/>
	<path class="st2" d="M1803.9,188.3c-0.1,11.6,0.9,20.6,3.7,26l-17.1,10c-1.1-7.4-3.2-14-7.9-18.2"/>
	<g id="rocket-burst">
		<line class="st2" x1="1738.2" y1="201.9" x2="1702.6" y2="244.1"/>
		<line class="st2" x1="1756" y1="213.8" x2="1716.7" y2="267.2"/>
		<line class="st2" x1="1746.3" y1="208" x2="1719.9" y2="243.6"/>
		<g>
			<g>
				<path class="st2" d="M1713.3,249.2c0,0-0.9,2-2.9,5.3"/>
				<path class="st2" d="M1703.3,265.4c-13.3,18.1-40,45.4-82,47.4"/>
				<path class="st2" d="M1614.7,312.9c-2,0-4-0.1-6-0.2"/>
			</g>
		</g>
	</g>
</g>
<g id="eyes-loading">
	<path class="st0" d="M569.1,270.6c20.2-25.1,51.2-41.1,85.9-41.1c26.2,0,50.2,9.1,69.1,24.3"/>
	<path class="st0" d="M547.7,313.9c-2,8.2-3,16.8-3,25.7c0,47.9,30.6,88.7,73.3,103.9"/>
	<path class="st0" d="M756.2,296.1c5.7,13.3,8.9,28.1,8.9,43.5c0,58.5-45.5,106.3-103.1,110"/>
	<polyline class="st0" points="522.5,333.3 547.7,313.9 569.1,336.6 	"/>
	<polyline class="st0" points="722.7,221.9 724,253.7 693.2,258.2 	"/>
	<polyline class="st0" points="688.8,466.3 661.8,449.6 675.4,421.6 	"/>
</g>
<g id="eyes">
	<path class="st2" d="M563.1,350.8c60.5,59,118.7,61.2,174-3.7C682.1,283.5,624.2,281.3,563.1,350.8z"/>
	<path class="st2" d="M689.9,347.2c-2.6,18.5-15.6,36-35.1,36s-35.4-17.4-35.4-36s15.3-36.5,35.3-33.8
		C673.9,316.1,692.8,326.3,689.9,347.2z"/>
	<path class="st2" d="M667.7,346.5c0,6.7-5.4,12.1-12.1,12.1c-6.7,0-12.1-5.4-12.1-12.1s4.5-9.8,11.2-9.8
		C661.4,336.7,667.7,339.9,667.7,346.5z"/>
	<line class="st2" x1="566.1" y1="327.5" x2="551.7" y2="313.2"/>
	<line class="st2" x1="602" y1="303.8" x2="591.4" y2="285.7"/>
	<line class="st2" x1="643.6" y1="290.9" x2="639.4" y2="271.6"/>
	<line class="st2" x1="686.9" y1="291.7" x2="688.1" y2="272.8"/>
	<line class="st2" x1="715.6" y1="304" x2="726.5" y2="290.7"/>
	<line class="st2" x1="733.9" y1="323.3" x2="747.8" y2="313.2"/>
</g>
<g id="paper">
	<g>
		<path class="st7" d="M1559.9,304.2c-2.2,0-4.5-0.2-6.9-0.5c-66.6-8.8-41.8-46.8-91.4-46.8h-109.9c22.1-8.2,27.3-29.6,28.5-39.9
			c0.4-3.2,3.1-5.7,6.4-5.7h238.6C1635.3,213.2,1620.7,305.5,1559.9,304.2z"/>
		<path class="st7" d="M1461.7,256.8c-23.7,1.3-38.9,20.4-48.5,47.4c-12.4,34.8-15.5,82.7-15.4,122.3c0,22.3,1.1,42,2,55.2
			c-34.5,1-89.4-1.8-136.3-3.1h-128.9c0-12.5,0.1-30.2,0.2-52.1c0.1-15,0.1-32,0.2-50.6c-5.2-77.9,38.1-108.7,52.6-116.8
			c2.8-1.5,5.9-2.3,9-2.3H1461.7z"/>
		<path class="st7" d="M1559.9,304.2h-146.7c9.6-27,24.8-46,48.5-47.4c49.6,0,24.8,38.1,91.4,46.8
			C1555.4,304,1557.7,304.1,1559.9,304.2z"/>
		<line class="st2" x1="1562.3" y1="304.2" x2="1559.9" y2="304.2"/>
		<line class="st2" x1="1471.8" y1="256.8" x2="1461.7" y2="256.8"/>
		<line class="st2" x1="1351.7" y1="256.8" x2="1346.1" y2="256.8"/>
		<line class="st2" x1="1210.8" y1="272.7" x2="1394.3" y2="276.2"/>
		<line class="st2" x1="1369.9" y1="297.8" x2="1198.1" y2="294"/>
		<path class="st2" d="M1368,332.3c-54.4,3-118.9,0.2-188.9-5.8"/>
		<path class="st2" d="M1174.8,364.4c75.7,3.3,147.9,5.8,187,0.4"/>
		<path class="st2" d="M1171,400c68.3-0.7,131.5-1.4,188.1-1.9"/>
		<path class="st2" d="M1173.7,435.6c69.2,5.4,133.9,7.5,189.3,3.1"/>
	</g>
</g>
<g id="smoke">
	<path class="st2" d="M965,228.5c-21.7,5.9-43.1,10.5-57.7-12c-25.6,6.1-47.8,21.3-89.8-18.2c-23.3,14.4-35.8,6.7-45.7-6.2
		c-19.9,21.5-43.6,27.2-75.1,0c-15.2,7.6-31.4,12-54.6-8.9c-120.4-10.1-61.9-164.5,60.4-100.6c36.9-35.4,114.2-46.1,135.5,24.8
		c51.2-19.1,92.3-10.3,107.2,70.8c24.1,0.7,40.6,12.7,42.6,46.1c19.1,1.6,25.1,14.3,24.8,32.5"/>
</g>
</svg>
