<?xml version="1.0" encoding="UTF-8"?>
<svg xmlns="http://www.w3.org/2000/svg" width="550" height="89" viewBox="0 0 550 89" fill="none">
  <path d="M57.07 62.43H57.02V62.5C54.84 65.73 51.75 68.3 48.1 69.82C45.72 70.82 43.11 71.39 40.38 71.39H0V0H36.87C47.88 0 59.4 9.02001 56.5 19.85C54.18 28.51 43.02 28.51 34.69 28.51C39.66 28.51 43.68 25.28 43.67 20.31C43.66 15.34 39.63 11.33 34.67 11.34H13.25V28.51H34.69C57.5 28.51 60.42 44.12 60.43 51.27C60.43 55.4 59.19 59.24 57.06 62.43H57.07ZM47.13 49.88C47.13 44.8 43 39.87 37.92 39.87H13.25V60.04L37.94 60.02C43 60.02 47.13 54.96 47.13 49.88Z" fill="white"></path>
  <path d="M96.83 34.35C96.83 34.35 94.62 33.25 90.48 33.25C83.83 33.25 80.36 36.9 80.36 41.88V71.4H68.84V23.65H80.36V41.31C80.36 29.37 85.5 22.52 90.48 22.52C92.71 22.52 94.85 22.92 96.83 23.66V34.35Z" fill="white"></path>
  <path d="M147.67 50.6699H112.29C113.43 58.4899 118.73 62.2299 124.16 62.2999C127.78 62.2499 131.35 60.5699 133.65 57.1399H146.23C142.72 66.9399 133.87 72.3699 124.16 72.4599C111.61 72.3499 100.49 63.3499 100.49 47.4499C100.49 31.5499 111.87 22.4399 124.16 22.4399C136.45 22.4399 147.83 31.5999 147.83 47.4499C147.83 48.5599 147.78 49.6399 147.67 50.6799V50.6699ZM135.66 41.9099C133.3 35.7899 129.1 32.66 124.16 32.59C119.22 32.66 115.01 35.7699 112.65 41.9099H135.66Z" fill="white"></path>
  <path d="M167.34 23.67V71.41H155.82V23.67H167.34ZM197.96 39.6V71.41H186.44V40.63C186.44 36.56 182.85 32.68 176.89 32.68C171.38 32.68 167.34 36.56 167.34 40.63C167.34 30.74 170.61 23.6 178.03 22.64C186.2 21.58 197.96 27.6 197.96 39.6Z" fill="white"></path>
  <path d="M230.79 32.64H205.72C208.18 32.66 222.7 33.05 222.7 39.86V57.61C222.7 59.59 224.37 61.25 226.25 61.25H230.79V71.4H222.91C216.49 71.4 211.17 66.19 211.17 59.66V39.04C211.17 32.63 205.36 32.63 205.36 32.63H204.22V23.64H211.17V6.63H222.69V23.64H230.79V32.64Z" fill="white"></path>
  <path d="M283.29 47.44C283.29 63.29 272.17 72.35 259.62 72.45C247.07 72.34 235.95 63.34 235.95 47.44C235.95 31.54 247.33 22.4301 259.62 22.4301C271.91 22.4301 283.29 31.59 283.29 47.44ZM271.71 47.44C271.71 38.09 265.89 32.6801 259.62 32.5901C253.35 32.6801 247.53 38.05 247.53 47.44C247.53 57.46 253.49 62.22 259.62 62.3C265.75 62.22 271.71 57.47 271.71 47.44Z" fill="white"></path>
  <path d="M302.9 23.67V71.41H291.38V23.67H302.9ZM333.52 39.6V71.41H322V40.63C322 36.56 318.41 32.68 312.45 32.68C306.94 32.68 302.9 36.56 302.9 40.63C302.9 30.74 306.17 23.6 313.59 22.64C321.76 21.58 333.52 27.6 333.52 39.6Z" fill="white"></path>
  <path d="M453.59 6.64001L442.32 71.38H419.28L409.73 12.72L400.18 71.38H377.14L365.87 6.64001H378.21L388.86 67.71L399.1 6.64001H420.36L430.6 67.71L441.25 6.64001H453.59Z" fill="white"></path>
  <path d="M496.82 35.9399V71.3199H485.3V37.0999C485.3 46.9599 482.12 49.31 477.74 49.31H475.12C472.1 49.31 467.4 50.2099 466.87 55.1499C466.43 59.1799 469.76 62.8199 475.12 62.8199C480.21 62.8199 485.3 59.1799 485.3 55.1099C485.3 66.2099 480.79 72.2099 473.11 72.4499C461.43 72.8199 455.34 64.3399 455.34 56.6699C455.34 46.9399 463.44 40.8799 473.22 40.8799H480.42C483.32 40.8799 485.41 39.1999 485.28 37.0999C485.06 33.5199 482.1 31.6599 477.22 31.6599C474.02 31.6599 470.98 33.61 469.96 36H458.42C460.55 26.09 469.09 22.4399 477.22 22.4399C485.35 22.4399 496.82 26.6299 496.82 35.9399Z" fill="white"></path>
  <path d="M549.34 23.65L527.34 80.42C525.36 85.52 522.68 88.44 515.28 88.44H509.57V77.74H514.36C516.07 77.7 517.16 77.27 518.07 75.22C518.12 75.1 519.49 71.39 519.49 71.39L500.97 23.65H513.58L525.16 56.14L536.73 23.65H549.34Z" fill="white"></path>
</svg>
