<?xml version="1.0" encoding="UTF-8"?>
<svg xmlns="http://www.w3.org/2000/svg" width="34" height="34" viewBox="0 0 34 34" fill="none">
  <g clip-path="url(#clip0_301_20)">
    <path d="M29.915 31.4074C29.6678 31.9687 29.274 32.4275 28.7838 32.7696C28.4523 33.001 28.0766 33.18 27.6727 33.3008C27.086 33.4758 26.4391 33.5241 25.7901 33.4456C25.4646 33.4074 25.1371 33.337 24.8197 33.2384C24.5063 33.1418 24.2169 33.003 23.9136 32.8822C22.8226 32.4537 21.7778 31.9044 20.8154 31.2484C19.8671 30.6025 18.9991 29.854 18.2397 29.0311C17.4802 28.2061 16.8312 27.3047 16.3169 26.359C15.9834 25.7453 15.7041 25.1115 15.4871 24.4676C15.4429 24.3388 15.3987 24.2081 15.3545 24.0732C15.3545 24.0732 16.8473 24.7574 18.0689 25.2966L22.1917 27.1155C22.7101 27.3429 23.1762 27.52 23.5981 27.6508C25.4827 28.2363 26.4592 27.9325 26.9635 27.4576C27.2247 27.2141 27.3593 26.9224 27.4296 26.685C27.5019 26.4455 27.506 26.2584 27.506 26.2262C28.1308 26.532 28.6652 26.9445 29.0892 27.4174C29.3805 27.7433 29.6176 28.0975 29.7984 28.4697C30.1319 29.1598 30.2605 29.9063 30.146 30.6247C30.1038 30.8903 30.0275 31.1498 29.917 31.4033L29.915 31.4074Z" fill="white"></path>
    <path d="M33.2942 20.1597C33.4569 19.218 33.3665 18.2462 33.0571 17.3126L33.039 17.3045L33.047 17.2844C32.6794 16.1898 32.0083 15.1476 31.0921 14.2703C30.3849 13.5922 29.529 13.0147 28.5525 12.5821L0.307617 0.418945C1.64372 4.37273 4.9488 7.77922 9.21628 9.59414L12.7906 11.1153L26.5313 17.1778C27.6163 17.6566 28.4782 18.1556 29.1633 18.6547C30.3568 19.5239 31.0097 20.3871 31.3614 21.1175C31.5583 21.5279 31.6607 21.8982 31.711 22.204C31.8014 22.7533 31.723 23.0994 31.719 23.1135C31.9279 22.9123 32.1208 22.695 32.2976 22.4616C32.5407 22.1376 32.7517 21.7835 32.9185 21.3992C33.0953 20.9967 33.2198 20.5802 33.2922 20.1577L33.2942 20.1597Z" fill="white"></path>
    <path d="M32.5271 28.0754C32.7581 27.2303 32.7762 26.349 32.6034 25.4858C32.5954 25.4415 32.5853 25.3993 32.5753 25.355C32.4025 24.5723 32.073 23.8057 31.6109 23.0934C31.3798 22.7393 31.1166 22.3992 30.8213 22.0773C30.6907 21.9344 30.552 21.7936 30.4094 21.6588C29.8207 21.1014 29.1336 20.6105 28.358 20.2161C28.2073 20.1396 28.0546 20.0672 27.8959 19.9968L7.54102 11.4614C8.75656 14.9987 11.7321 18.033 15.5616 19.6386C16.7008 20.1155 17.6954 20.536 18.2137 20.7634C18.2318 20.7714 18.2479 20.7795 18.266 20.7855C18.6136 20.9364 18.9893 21.1014 19.3911 21.2785C19.6081 21.3731 19.8331 21.4716 20.0642 21.5743C20.3696 21.7091 20.685 21.8479 21.0145 21.9928C21.8543 22.363 22.7745 22.7715 23.761 23.2101C24.627 23.5944 25.5432 24.0049 26.5036 24.4355C26.8029 24.5703 27.0842 24.7071 27.3434 24.8459C28.0607 25.2262 28.6333 25.6206 29.0894 26.019C29.439 26.3228 29.7182 26.6287 29.9413 26.9325C30.7731 28.0673 30.7992 29.1619 30.6163 29.9728L30.6103 30.003L30.5983 30.0553C30.4094 30.8179 30.0477 31.3068 30.0477 31.3068C30.5179 31.0231 30.9438 30.677 31.3115 30.2786C31.7033 29.8521 32.0288 29.3611 32.2699 28.8118C32.3764 28.5704 32.4628 28.3229 32.5311 28.0754H32.5271Z" fill="white"></path>
  </g>
  <defs>
    <clipPath id="clip0_301_20">
      <rect width="33.0649" height="33.0649" fill="white" transform="translate(0.307617 0.418945)"></rect>
    </clipPath>
  </defs>
</svg>
