
<svg version="1.1" id="logo" xmlns="http://www.w3.org/2000/svg" xmlns:xlink="http://www.w3.org/1999/xlink" x="0px" y="0px"
	 viewBox="0 0 367.5 123.5" style="enable-background:new 0 0 367.5 123.5;" xml:space="preserve">
<style type="text/css">
	.st0{fill:#fff;}
	.st1{fill:#4db7ff;}
	.st2{fill:#4db7ff;}
</style>
<path class="st0" d="M72.3,0v42.7c-7.6-5.8-17-9.2-27.3-9.2c-24.8,0-45,20.2-45,45c0,12.4,5,23.6,13.1,31.7V78.5
	c0-17.7,14.4-32.1,32.1-32.1s32.2,14.4,32.2,32.1S63,110.6,45.3,110.6c-7.3,0-14-2.5-19.4-6.6v15.2c5.8,2.8,12.3,4.3,19.2,4.3
	c24.8,0,45-20.2,45-45V0H72.3z"/>
<path class="st0" d="M116.5,114.9v-7.2l-3.5,5.8h-1.7l-3.5-5.6v7h-3.5v-13.5h3.1l4.7,7.8l4.6-7.8h3.1v13.5H116.5z"/>
<path class="st0" d="M143.2,112v2.9h-10.8v-13.5H143v2.9h-6.8v2.3h6v2.9h-6v2.5H143.2z"/>
<path class="st0" d="M154.9,101.4h6.4c1.5,0,2.8,0.3,3.9,0.8c1.1,0.6,2,1.3,2.7,2.4c0.6,1,0.9,2.2,0.9,3.6s-0.3,2.6-0.9,3.6
	c-0.6,1-1.5,1.8-2.7,2.4c-1.1,0.6-2.5,0.8-3.9,0.8h-6.4V101.4z M161.1,111.9c1.2,0,2.1-0.3,2.8-1s1.1-1.6,1.1-2.7
	c0-1.2-0.4-2.1-1.1-2.7c-0.7-0.7-1.6-1-2.8-1h-2.4v7.4H161.1z"/>
<path class="st0" d="M180.5,101.4h3.8v13.5h-3.8V101.4z"/>
<path class="st0" d="M205.7,112.3H200l-1.1,2.6H195l6-13.5h3.8l6,13.5h-4L205.7,112.3z M204.6,109.5l-1.7-4.3l-1.7,4.3H204.6z"/>
<polygon class="st2" points="41.3,76.7 42.4,74.7 40.5,70.2 33.6,79.2 30,80.5 27.8,84.5 31,82.6 35.9,82.6 37.7,80.3 41.7,79.8 "/>
<polygon class="st2" points="51.6,74 47.6,79.6 48.7,81.6 46.6,80.1 44.2,80.4 38.5,92.3 45,85.2 47.8,84.7 52.7,86 51.4,78.9 "/>
<path class="st1" d="M59.7,64.5c-3.9-3.9-9.1-6-14.6-6s-10.7,2.1-14.6,6s-6,9.1-6,14.6c0,1.9,0.3,3.7,0.7,5.5
	c0.1,0.2,0.1,0.4,0.2,0.5c0.1,0.3,0.2,0.6,0.3,0.9c0,0.1,0.1,0.2,0.1,0.3c0.1,0.3,0.2,0.6,0.3,0.8c0.1,0.2,0.1,0.3,0.2,0.5
	c1.6,3.5,4.2,6.5,7.5,8.7s7.2,3.3,11.3,3.3c4,0,7.9-1.2,11.3-3.3c3.3-2.1,5.8-5.1,7.5-8.7c0.1-0.2,0.1-0.3,0.2-0.5
	c0.1-0.3,0.2-0.5,0.3-0.8c0-0.1,0.1-0.2,0.1-0.3l0,0c0.2-0.5,0.3-0.9,0.5-1.4c0.5-1.8,0.8-3.7,0.8-5.6
	C65.7,73.6,63.6,68.4,59.7,64.5z M63.6,84.3c-0.1,0.4-0.3,0.9-0.4,1.3l0,0c0,0.1-0.1,0.2-0.1,0.3c-0.1,0.3-0.2,0.5-0.3,0.8
	c-0.1,0.2-0.1,0.3-0.2,0.5c-3.1,6.8-10,11.2-17.5,11.2S30.8,94,27.6,87.2c-0.1-0.2-0.1-0.3-0.2-0.5c-0.1-0.2-0.2-0.5-0.3-0.8
	c0-0.1-0.1-0.2-0.1-0.3c-0.1-0.3-0.2-0.6-0.3-0.9c0-0.1-0.1-0.3-0.1-0.5v-0.1l2.7-4.7l3.4-1.2l7.8-10.1l5.6,7.2l2.4,1.2l3.2-4.5
	l7.4,8.3l4.7,3.8C63.7,84.1,63.6,84.2,63.6,84.3z"/>
<path class="st1" d="M103,54.3h17.2c3.9,0,7.3,0.7,10.3,2.1s5.3,3.4,6.9,6.1c1.6,2.6,2.5,5.7,2.5,9.3c0,3.6-0.8,6.6-2.5,9.3
	c-1.6,2.6-4,4.6-6.9,6.1c-3,1.4-6.4,2.1-10.3,2.1H103C103,89.3,103,54.3,103,54.3z M119.7,80c2.5,0,4.5-0.7,6.1-2.2
	c1.5-1.4,2.3-3.5,2.3-6.1s-0.8-4.7-2.3-6.1s-3.5-2.2-6.1-2.2h-4.9v16.5L119.7,80L119.7,80z"/>
<path class="st1" d="M144.1,54.3h11.8v34.9h-11.8V54.3z"/>
<path class="st1" d="M184.6,70.8h10.2v14.7c-2.1,1.4-4.4,2.5-7.2,3.3c-2.7,0.8-5.4,1.1-8,1.1c-3.7,0-7.1-0.8-10-2.3
	c-3-1.5-5.3-3.7-6.9-6.5c-1.7-2.8-2.5-5.9-2.5-9.4s0.8-6.7,2.5-9.4c1.7-2.8,4-4.9,7-6.5c3-1.5,6.4-2.3,10.2-2.3
	c3.4,0,6.5,0.6,9.2,1.7s5,2.8,6.7,5l-7.5,6.6c-2.2-2.6-4.8-3.8-7.8-3.8c-2.6,0-4.6,0.8-6.2,2.3c-1.5,1.6-2.3,3.7-2.3,6.4
	c0,2.6,0.8,4.7,2.3,6.3c1.5,1.6,3.5,2.4,6.1,2.4c1.5,0,2.9-0.3,4.3-0.8v-8.8H184.6z"/>
<path class="st1" d="M199.8,54.3h11.8v34.9h-11.8V54.3z"/>
<path class="st0" d="M246.1,55.8c2.4,1.1,4.2,2.6,5.5,4.6s1.9,4.3,1.9,7s-0.6,5-1.9,7s-3.1,3.5-5.5,4.6s-5.2,1.6-8.4,1.6h-5v8.6
	h-11.8v-35h16.8C240.9,54.2,243.7,54.7,246.1,55.8z M240.5,70.3c0.8-0.7,1.2-1.7,1.2-3s-0.4-2.3-1.2-3s-2-1.1-3.6-1.1h-4.3v8.2h4.3
	C238.5,71.4,239.7,71,240.5,70.3z"/>
<path class="st0" d="M286.4,80.2v8.9h-29V54.2h28.3v8.9h-16.8v4.1h14.7v8.5h-14.7v4.6L286.4,80.2L286.4,80.2z"/>
<path class="st0" d="M314.7,83h-13.3l-2.3,6.1h-12l15.3-34.9H314l15.2,34.9H317L314.7,83z M311.5,74.5l-3.4-8.8l-3.4,8.8H311.5z"/>
<path class="st0" d="M345.3,77.5l-2.6,2.9V89h-11.6V54.2h11.6v12.6l11.5-12.6H367l-14.1,15.3L367.5,89h-13.6L345.3,77.5z"/>
<path class="st0" d="M26.7,84.7c0.1,0.3,0.2,0.6,0.3,0.9c0,0.1,0.1,0.2,0.1,0.3c0.1,0.3,0.2,0.5,0.3,0.8c0.1,0.2,0.1,0.3,0.2,0.5
	c3.1,6.8,10,11.2,17.5,11.2S59.4,94,62.6,87.2c0.1-0.1,0.1-0.3,0.2-0.5s0.2-0.5,0.3-0.8c0-0.1,0.1-0.2,0.1-0.3l0,0
	c0.2-0.4,0.3-0.9,0.4-1.3c0-0.1,0-0.2,0.1-0.3L59,80.2l-7.4-8.3l-3.1,4.6l-2.4-1.2l-5.6-7.2l-7.8,10.1l-3.4,1.2l-2.7,4.7v0.1
	C26.7,84.4,26.7,84.6,26.7,84.7z M46.6,80.1l2.1,1.6l-1.1-2l4-5.6l-0.2,4.8l1.2,7l-4.9-1.2l-2.8,0.5l-6.5,7.1l5.7-11.9L46.6,80.1z
	 M30,80.5l3.7-1.2l6.9-9.1l1.9,4.5l-1,2l0.4,3.1l-4.1,0.5l-1.7,2.3h-5L28,84.5L30,80.5z"/>
</svg>
