<svg xmlns="http://www.w3.org/2000/svg" width="203" height="42" viewBox="0 0 203 42" fill="none">
<path d="M7.36925 27.6545C7.36925 29.9942 7.88278 31.7904 8.55398 32.8771C9.434 34.3005 10.7466 34.9035 12.0847 34.9035C13.8107 34.9035 15.3896 34.4752 18.4324 30.2669C20.87 26.8938 23.7423 22.1592 25.675 19.191L28.9479 14.1623C31.2215 10.6699 33.853 6.78758 36.8702 4.15604C39.3334 2.00819 41.9906 0.814941 44.6647 0.814941C49.1543 0.814941 53.4308 3.41665 56.7038 8.29619C60.2856 13.6402 62.0244 20.3715 62.0244 27.3179C62.0244 31.4474 61.2104 34.4816 59.8254 36.8788C58.4872 39.1971 55.8791 41.5133 51.4918 41.5133V34.9035C55.2484 34.9035 56.186 31.4516 56.186 27.5011C56.186 21.8715 54.8734 15.624 51.9819 11.16C49.9299 7.99362 47.2707 6.05885 44.3451 6.05885C41.1808 6.05885 38.6345 8.44535 35.7729 12.7006C34.2515 14.9613 32.6896 17.7165 30.9359 20.8253L29.0054 24.2453C25.1274 31.1214 24.1451 32.6875 22.206 35.2722C18.8074 39.798 15.9053 41.5133 12.0847 41.5133C7.5525 41.5133 4.68657 39.5508 2.91161 36.5933C1.46267 34.1833 0.750977 31.0212 0.750977 27.418L7.36925 27.6545Z" fill="#0081FB"/>
<path d="M5.96924 8.76284C9.0035 4.08572 13.3823 0.814941 18.4046 0.814941C21.3132 0.814941 24.2047 1.67579 27.224 4.14113C30.5267 6.83659 34.0468 11.2751 38.4384 18.5901L40.0131 21.2153C43.8144 27.548 45.9772 30.806 47.2429 32.3423C48.8708 34.3154 50.0108 34.9035 51.4917 34.9035C55.2483 34.9035 56.1859 31.4516 56.1859 27.5011L62.0243 27.3179C62.0243 31.4474 61.2103 34.4816 59.8253 36.8788C58.4871 39.1971 55.879 41.5133 51.4917 41.5133C48.7643 41.5133 46.348 40.9209 43.6759 38.4002C41.6218 36.4654 39.2204 33.0284 37.373 29.9388L31.8777 20.7593C29.1204 16.1525 26.5912 12.7176 25.1273 11.1621C23.5526 9.48944 21.5284 7.46944 18.2981 7.46944C15.6836 7.46944 13.4633 9.30406 11.6052 12.1103L5.96924 8.76284Z" fill="url(#paint0_linear_1740_18780)"/>
<path d="M18.2981 7.46944C15.6836 7.46944 13.4634 9.30406 11.6053 12.1103C8.97801 16.0758 7.36925 21.9823 7.36925 27.6545C7.36925 29.9942 7.88278 31.7904 8.55398 32.8771L2.91161 36.5933C1.46267 34.1833 0.750977 31.0212 0.750977 27.418C0.750977 20.8658 2.54938 14.0366 5.96931 8.76284C9.00358 4.08572 13.3824 0.814941 18.4047 0.814941L18.2981 7.46944Z" fill="url(#paint1_linear_1740_18780)"/>
<path d="M74.8901 2.10205H82.5461L95.5632 25.6517L108.582 2.10205H116.072V40.7974H109.827V11.1409L98.4099 31.6776H92.5502L81.1355 11.1409V40.7974H74.8901V2.10205ZM135.641 16.5297C131.163 16.5297 128.465 19.9007 127.819 24.0749H143.02C142.707 19.7749 140.227 16.5297 135.641 16.5297ZM121.627 26.4529C121.627 17.6697 127.304 11.2773 135.75 11.2773C144.058 11.2773 149.019 17.5887 149.019 26.9217V28.637H127.819C128.571 33.1777 131.584 36.2375 136.443 36.2375C140.319 36.2375 142.741 35.0549 145.038 32.8922L148.356 36.9556C145.23 39.8301 141.254 41.4878 136.221 41.4878C127.078 41.4878 121.627 34.8205 121.627 26.4529V26.4529ZM156.592 17.0837H150.843V11.9698H156.592V3.51264H162.617V11.9698H171.352V17.0837H162.617V30.0454C162.617 34.4711 164.032 36.0436 167.51 36.0436C169.097 36.0436 170.007 35.9073 171.352 35.6835V40.742C169.677 41.2151 168.079 41.4324 166.348 41.4324C159.843 41.4324 156.592 37.8782 156.592 30.7635V17.0837ZM196.725 22.057C195.515 19.0015 192.815 16.7513 188.848 16.7513C183.691 16.7513 180.39 20.4099 180.39 26.3698C180.39 32.1805 183.429 36.0159 188.6 36.0159C192.666 36.0159 195.568 33.6507 196.725 30.7081V22.057ZM202.751 40.7974H196.836V36.7617C195.183 39.1376 192.174 41.4878 187.301 41.4878C179.464 41.4878 174.226 34.9271 174.226 26.3698C174.226 17.7315 179.589 11.2773 187.633 11.2773C191.609 11.2773 194.729 12.8669 196.836 15.6731V11.9698H202.751V40.7974Z" fill="#192830"/>
<defs>
<linearGradient id="paint0_linear_1740_18780" x1="13.7488" y1="25.7453" x2="55.9387" y2="27.8761" gradientUnits="userSpaceOnUse">
<stop stop-color="#0064E1"/>
<stop offset="0.4" stop-color="#0064E1"/>
<stop offset="0.83" stop-color="#0073EE"/>
<stop offset="1" stop-color="#0082FB"/>
</linearGradient>
<linearGradient id="paint1_linear_1740_18780" x1="10.3396" y1="30.4331" x2="10.3396" y2="14.8782" gradientUnits="userSpaceOnUse">
<stop stop-color="#0082FB"/>
<stop offset="1" stop-color="#0064E0"/>
</linearGradient>
</defs>
</svg>