<svg xmlns="http://www.w3.org/2000/svg" width="202" height="59" viewBox="0 0 202 59" fill="none">
<g clip-path="url(#clip0_1738_19741)">
<path d="M38.6027 21.2469C42.4031 23.9622 47.0588 25.5598 52.0872 25.5598V15.8887C51.1356 15.8889 50.1864 15.7897 49.2554 15.5926V23.2051C44.2274 23.2051 39.5723 21.6075 35.7709 18.8924V38.6284C35.7709 48.5014 27.7632 56.5044 17.8858 56.5044C14.2003 56.5044 10.7748 55.3908 7.9292 53.4809C11.177 56.8 15.7062 58.8589 20.717 58.8589C30.595 58.8589 38.6031 50.8559 38.6031 40.9825V21.2469H38.6027V21.2469ZM42.0961 11.4899C40.1539 9.36914 38.8786 6.62841 38.6027 3.59841V2.35449H35.9191C36.5946 6.20562 38.8986 9.4958 42.0961 11.4899ZM14.1767 45.9047C13.0915 44.4826 12.5051 42.743 12.5077 40.9543C12.5077 36.4388 16.1704 32.7775 20.6891 32.7775C21.5313 32.7773 22.3684 32.9062 23.1709 33.1607V23.2734C22.233 23.1449 21.2864 23.0904 20.3403 23.1104V30.8062C19.5371 30.5517 18.6996 30.4224 17.8573 30.4232C13.3386 30.4232 9.6761 34.084 9.6761 38.6002C9.6761 41.7934 11.5068 44.5579 14.1767 45.9047Z" fill="#FF004F"/>
<path d="M35.7707 18.8922C39.5721 21.6073 44.2272 23.2049 49.2552 23.2049V15.5924C46.4486 14.9948 43.964 13.5289 42.0959 11.4899C38.8982 9.4956 36.5944 6.20542 35.9189 2.35449H28.8699V40.9821C28.854 45.4853 25.1976 49.1316 20.6885 49.1316C18.0314 49.1316 15.6709 47.8657 14.1759 45.9047C11.5062 44.5579 9.6755 41.7932 9.6755 38.6004C9.6755 34.0847 13.338 30.4234 17.8567 30.4234C18.7225 30.4234 19.5569 30.5581 20.3397 30.8064V23.1106C10.6358 23.311 2.83154 31.2358 2.83154 40.9823C2.83154 45.8477 4.77499 50.2584 7.92922 53.4811C10.7748 55.3908 14.2003 56.5046 17.8858 56.5046C27.7634 56.5046 35.7709 48.5012 35.7709 38.6284V18.8922H35.7707Z" fill="black"/>
<path d="M49.2553 15.5922V13.5338C46.7244 13.5376 44.2433 12.8292 42.096 11.4896C43.9968 13.5696 46.4998 15.0038 49.2553 15.5922ZM35.919 2.35431C35.8546 1.98627 35.8051 1.6158 35.7708 1.24392V0H26.038V38.6281C26.0224 43.1306 22.3662 46.7769 17.8568 46.7769C16.5329 46.7769 15.2829 46.4628 14.176 45.9047C15.671 47.8655 18.0315 49.1312 20.6886 49.1312C25.1973 49.1312 28.8543 45.4853 28.87 40.9822V2.35431H35.919ZM20.3402 23.1104V20.9191C19.5269 20.808 18.707 20.7523 17.8861 20.7527C8.00768 20.7525 0 28.7559 0 38.6281C0 44.8173 3.14716 50.2719 7.92951 53.4805C4.77528 50.258 2.83184 45.8471 2.83184 40.982C2.83184 31.2357 10.6359 23.3108 20.3402 23.1104Z" fill="#00F2EA"/>
<path d="M162.03 48.4111C169.097 48.4111 174.827 42.7276 174.827 35.7174C174.827 28.7074 169.097 23.0229 162.03 23.0229H160.102C167.17 23.0229 172.899 28.7072 172.899 35.7174C172.899 42.7276 167.17 48.4111 160.102 48.4111H162.03Z" fill="#FF004F"/>
<path d="M159.926 23.0229H157.999C150.931 23.0229 145.2 28.7072 145.2 35.7174C145.2 42.7276 150.931 48.4111 157.999 48.4111H159.926C152.858 48.4111 147.128 42.7276 147.128 35.7174C147.128 28.7074 152.858 23.0229 159.926 23.0229Z" fill="#00F2EA"/>
<path d="M62.6328 17.2856V23.72H70.1696V48.2375H77.7095V23.8937H83.8446L85.9483 17.2858H62.6328V17.2856ZM124.34 17.2856V23.72H131.877V48.2375H139.417V23.8937H145.552L147.655 17.2858H124.34V17.2856ZM87.352 20.937C87.352 18.9208 88.9974 17.2856 91.0304 17.2856C93.0651 17.2856 94.7124 18.9208 94.7124 20.937C94.7124 22.9534 93.0661 24.5886 91.0304 24.5886C88.9974 24.5875 87.352 22.9534 87.352 20.937ZM87.352 27.1976H94.7124V48.2375H87.352V27.1976ZM97.8685 17.2856V48.2373H105.232V40.2393L107.511 38.1508L114.698 48.411H122.586L112.242 33.457L121.533 24.4138H112.593L105.232 31.7167V17.2856H97.8685ZM177.28 17.2856V48.2373H184.644V40.2393L186.923 38.1508L194.111 48.411H202L191.656 33.457L200.947 24.4138H192.008L184.644 31.7167V17.2856H177.28Z" fill="black"/>
<path d="M160.1 48.4111C167.168 48.4111 172.899 42.7276 172.899 35.7174C172.899 28.7074 167.168 23.0229 160.1 23.0229H159.926C152.858 23.0229 147.128 28.7072 147.128 35.7174C147.128 42.7276 152.858 48.4111 159.926 48.4111H160.1ZM153.789 35.7174C153.789 32.3075 156.577 29.5453 160.015 29.5453C163.45 29.5453 166.237 32.3075 166.237 35.7174C166.237 39.1274 163.45 41.8912 160.015 41.8912C156.577 41.8906 153.789 39.1274 153.789 35.7174Z" fill="black"/>
</g>
<defs>
<clipPath id="clip0_1738_19741">
<rect width="202" height="58.8586" fill="white"/>
</clipPath>
</defs>
</svg>