<svg xmlns="http://www.w3.org/2000/svg" width="202" height="74" viewBox="0 0 202 74" fill="none">
<path d="M27.4141 32.8299V25.9331H50.4998C50.7354 27.1499 50.8749 28.5927 50.8749 30.1606C50.8749 35.3309 49.4609 41.7323 44.9015 46.2918C40.4671 50.9089 34.8063 53.3714 27.2938 53.3714C13.3799 53.3714 1.68311 42.045 1.68311 28.131C1.68311 14.2171 13.3799 2.89062 27.2938 2.89062C34.9891 2.89062 40.4671 5.9062 44.5937 9.8452L39.7313 14.7076C36.7782 11.9373 32.7767 9.78267 27.2938 9.78267C17.1361 9.78267 9.19558 17.9685 9.19558 28.131C9.19558 38.2935 17.1361 46.4793 27.2938 46.4793C33.8829 46.4793 37.6343 43.8341 40.0391 41.4293C41.9965 39.4719 43.2855 36.6679 43.7857 32.8299H27.4141Z" fill="#4285F4"/>
<path d="M86.0521 37.1156C86.0521 46.475 78.7272 53.367 69.7382 53.367C60.7492 53.367 53.4243 46.4702 53.4243 37.1156C53.4243 27.6986 60.7492 20.8643 69.7382 20.8643C78.7272 20.8643 86.0521 27.6986 86.0521 37.1156V37.1156ZM78.91 37.1156C78.91 31.2673 74.6632 27.2657 69.7382 27.2657C64.8133 27.2657 60.5665 31.2673 60.5665 37.1156C60.5665 42.9015 64.8133 46.9655 69.7382 46.9655C74.6632 46.9704 78.91 42.9063 78.91 37.1156Z" fill="#EA4335"/>
<path d="M121.161 37.1156C121.161 46.475 113.837 53.367 104.848 53.367C95.8586 53.367 88.5337 46.4702 88.5337 37.1156C88.5337 27.6986 95.8586 20.8643 104.848 20.8643C113.837 20.8643 121.161 27.6986 121.161 37.1156V37.1156ZM114.019 37.1156C114.019 31.2673 109.773 27.2657 104.848 27.2657C99.9226 27.2657 95.6758 31.2673 95.6758 37.1156C95.6758 42.9015 99.9226 46.9655 104.848 46.9655C109.773 46.9704 114.019 42.9063 114.019 37.1156Z" fill="#FBBC05"/>
<path d="M154.867 21.8405V51.0295C154.867 63.0341 147.787 67.959 139.414 67.959C131.536 67.959 126.794 62.6638 125.01 58.3544L131.228 55.7669C132.334 58.4121 135.047 61.5528 139.414 61.5528C144.772 61.5528 148.095 58.2294 148.095 52.0107V49.6732H147.85C146.248 51.6451 143.17 53.3669 139.294 53.3669C131.166 53.3669 123.716 46.2873 123.716 37.1733C123.716 28.0015 131.166 20.8594 139.294 20.8594C143.17 20.8594 146.248 22.5812 147.85 24.4906H148.095V21.8357H154.867V21.8405ZM148.586 37.1781C148.586 31.4499 144.767 27.2657 139.905 27.2657C134.98 27.2657 130.853 31.4499 130.853 37.1781C130.853 42.8437 134.98 46.9655 139.905 46.9655C144.772 46.9703 148.586 42.8437 148.586 37.1781Z" fill="#4285F4"/>
<path d="M166.89 4.77148V52.3858H159.748V4.77148H166.89Z" fill="#34A853"/>
<path d="M193.988 42.4735L199.528 46.1672C197.744 48.8125 193.435 53.3719 185.985 53.3719C176.75 53.3719 169.854 46.2298 169.854 37.1205C169.854 27.4534 176.808 20.8691 185.181 20.8691C193.617 20.8691 197.739 27.5784 199.095 31.2096L199.836 33.0565L178.102 42.0455C179.766 45.3063 182.349 46.9704 185.98 46.9704C189.616 46.9704 192.141 45.1813 193.988 42.4735V42.4735ZM176.933 36.6251L191.463 30.594C190.664 28.5644 188.26 27.1456 185.432 27.1456C181.796 27.1456 176.75 30.3439 176.933 36.6251V36.6251Z" fill="#EA4335"/>
</svg>